G04*
G04 #@! TF.GenerationSoftware,Altium Limited,Altium Designer,21.5.1 (32)*
G04*
G04 Layer_Physical_Order=2*
G04 Layer_Color=16711680*
%FSLAX25Y25*%
%MOIN*%
G70*
G04*
G04 #@! TF.SameCoordinates,038A9873-0345-4B3A-900E-8F7FEBA65CAA*
G04*
G04*
G04 #@! TF.FilePolarity,Positive*
G04*
G01*
G75*
%ADD10C,0.01000*%
%ADD12C,0.00800*%
%ADD16R,0.03150X0.03347*%
%ADD17R,0.03800X0.03500*%
%ADD18R,0.03500X0.03800*%
%ADD35C,0.01300*%
%ADD36C,0.02756*%
%ADD37C,0.08661*%
%ADD38O,0.03937X0.07087*%
%ADD39O,0.04724X0.06693*%
%ADD40C,0.02000*%
%ADD41O,0.05512X0.01181*%
%ADD42O,0.01181X0.05512*%
%ADD43O,0.01575X0.07874*%
%ADD44O,0.07874X0.01378*%
%ADD45R,0.03937X0.02953*%
%ADD46R,0.04724X0.05906*%
G04:AMPARAMS|DCode=47|XSize=31.5mil|YSize=33.47mil|CornerRadius=0mil|HoleSize=0mil|Usage=FLASHONLY|Rotation=135.000|XOffset=0mil|YOffset=0mil|HoleType=Round|Shape=Rectangle|*
%AMROTATEDRECTD47*
4,1,4,0.02297,0.00070,-0.00070,-0.02297,-0.02297,-0.00070,0.00070,0.02297,0.02297,0.00070,0.0*
%
%ADD47ROTATEDRECTD47*%

%ADD48R,0.04724X0.13780*%
%ADD49R,0.07874X0.13780*%
%ADD50R,0.05906X0.04724*%
%ADD51R,0.01181X0.04600*%
G04:AMPARAMS|DCode=52|XSize=38mil|YSize=35mil|CornerRadius=0mil|HoleSize=0mil|Usage=FLASHONLY|Rotation=315.000|XOffset=0mil|YOffset=0mil|HoleType=Round|Shape=Rectangle|*
%AMROTATEDRECTD52*
4,1,4,-0.02581,0.00106,-0.00106,0.02581,0.02581,-0.00106,0.00106,-0.02581,-0.02581,0.00106,0.0*
%
%ADD52ROTATEDRECTD52*%

G36*
X38300Y118502D02*
Y111400D01*
X31300Y104400D01*
X20450D01*
Y104400D01*
X12700Y104400D01*
X10100Y107000D01*
X10100Y111743D01*
X12519Y113400D01*
X16200D01*
X17100Y114300D01*
Y118856D01*
X19600D01*
Y114200D01*
X25200Y108600D01*
X30900D01*
X36200Y113900D01*
Y118856D01*
X37946Y118856D01*
X38300Y118502D01*
D02*
G37*
G36*
X52016Y95074D02*
X51806Y94294D01*
X51446Y94054D01*
X51093Y93524D01*
X50969Y92900D01*
X51093Y92276D01*
X51446Y91746D01*
X51976Y91393D01*
X52290Y90925D01*
X52119Y90166D01*
X51920Y90032D01*
X51657Y89639D01*
X51564Y89174D01*
X51657Y88709D01*
X51920Y88316D01*
X52313Y88052D01*
X52778Y87960D01*
X54053D01*
X54358Y87900D01*
X54943D01*
X55248Y87960D01*
X57109D01*
X57542Y88046D01*
X57643Y87938D01*
X57931Y87464D01*
X57641Y87030D01*
X57517Y86406D01*
X57238Y86425D01*
X57109Y86451D01*
X52778D01*
X52313Y86358D01*
X52106Y86220D01*
X48500D01*
X48110Y86142D01*
X47779Y85921D01*
X45851Y83992D01*
X37149D01*
X36881Y84639D01*
X47459Y95217D01*
X47700Y95169D01*
X48324Y95293D01*
X48853Y95647D01*
X49207Y96176D01*
X49326Y96774D01*
X49439Y96851D01*
X49984Y97106D01*
X52016Y95074D01*
D02*
G37*
G36*
X7894Y148482D02*
X9551Y148481D01*
Y122581D01*
X9550Y122518D01*
X9482Y122352D01*
X9672Y121893D01*
X9672D01*
X9859Y121815D01*
X10131Y121703D01*
X15961D01*
X16517Y121356D01*
X16517Y121002D01*
Y119017D01*
X16451Y118856D01*
Y118542D01*
X16433Y118456D01*
X16451Y118370D01*
Y114569D01*
X15931Y114049D01*
X12519D01*
X12341Y113976D01*
X12152Y113936D01*
X9733Y112278D01*
X9699Y112226D01*
X9641Y112202D01*
X9567Y112023D01*
X9462Y111862D01*
X9475Y111801D01*
X9450Y111743D01*
X9451Y107000D01*
X9641Y106541D01*
X12241Y103941D01*
X12700Y103751D01*
X20450Y103751D01*
X20450Y103751D01*
X26042D01*
Y103114D01*
X26139Y102627D01*
X26415Y102213D01*
X28794Y99834D01*
X28023Y99063D01*
X31098Y95987D01*
X31668Y96556D01*
X32656Y95568D01*
X32087Y94998D01*
X35163Y91923D01*
X36049Y92809D01*
X36448Y92410D01*
X36779Y92189D01*
X37169Y92112D01*
X37831D01*
X38222Y92189D01*
X38552Y92410D01*
X44229Y98087D01*
X44450Y98417D01*
X44527Y98808D01*
Y101182D01*
X45217Y101873D01*
X48006Y99084D01*
X47750Y98539D01*
X47674Y98426D01*
X47076Y98307D01*
X46547Y97953D01*
X46193Y97424D01*
X46069Y96800D01*
X46084Y96725D01*
X34236Y84878D01*
X31011D01*
X30720Y85072D01*
X30217Y85172D01*
X23720D01*
X23217Y85072D01*
X22791Y84787D01*
X22682Y84624D01*
X21923Y84559D01*
X21872Y84576D01*
X21754Y84754D01*
X21224Y85107D01*
X20600Y85231D01*
X19976Y85107D01*
X19467Y84767D01*
X14624D01*
X14610Y84787D01*
X14184Y85072D01*
X14165Y85076D01*
Y85790D01*
X14184Y85794D01*
X14610Y86079D01*
X14895Y86505D01*
X14995Y87008D01*
X14895Y87511D01*
X14610Y87937D01*
X14184Y88222D01*
X13681Y88322D01*
X7185D01*
X6682Y88222D01*
X6256Y87937D01*
X5971Y87511D01*
X5871Y87008D01*
X5971Y86505D01*
X6256Y86079D01*
X6682Y85794D01*
X6701Y85790D01*
Y85076D01*
X6682Y85072D01*
X6256Y84787D01*
X5971Y84361D01*
X5871Y83858D01*
X5971Y83355D01*
X6256Y82929D01*
X6682Y82644D01*
X6701Y82640D01*
Y81927D01*
X6682Y81923D01*
X6256Y81638D01*
X5971Y81212D01*
X5871Y80709D01*
X5971Y80206D01*
X6256Y79779D01*
X6682Y79495D01*
X6701Y79491D01*
Y78777D01*
X6682Y78773D01*
X6256Y78488D01*
X5971Y78062D01*
X5871Y77559D01*
X5971Y77056D01*
X6256Y76630D01*
X6682Y76345D01*
X6701Y76341D01*
Y75627D01*
X6682Y75624D01*
X6256Y75339D01*
X5971Y74912D01*
X5871Y74409D01*
X5971Y73906D01*
X6256Y73480D01*
X6682Y73195D01*
X6701Y73191D01*
Y72478D01*
X6682Y72474D01*
X6256Y72189D01*
X5971Y71763D01*
X5871Y71260D01*
X5971Y70757D01*
X6256Y70331D01*
X6682Y70046D01*
X6701Y70042D01*
Y69328D01*
X6682Y69324D01*
X6256Y69039D01*
X5971Y68613D01*
X5871Y68110D01*
X5971Y67607D01*
X6256Y67181D01*
X6682Y66896D01*
X6701Y66892D01*
Y66179D01*
X6682Y66175D01*
X6256Y65890D01*
X5971Y65464D01*
X5871Y64961D01*
X5971Y64458D01*
X6256Y64031D01*
X6682Y63747D01*
X6701Y63743D01*
Y63029D01*
X6682Y63025D01*
X6256Y62740D01*
X5971Y62314D01*
X5871Y61811D01*
X5971Y61308D01*
X6256Y60882D01*
X6682Y60597D01*
X6701Y60593D01*
Y59879D01*
X6682Y59876D01*
X6256Y59591D01*
X5971Y59164D01*
X5903Y58821D01*
X1822Y54740D01*
X1641Y54755D01*
X1122Y54973D01*
Y141627D01*
X1142Y141729D01*
X1142D01*
X1138Y141733D01*
X1268Y143047D01*
X1652Y144315D01*
X2276Y145483D01*
X3117Y146507D01*
X4141Y147347D01*
X5309Y147971D01*
X6576Y148356D01*
X7880Y148484D01*
X7894Y148482D01*
D02*
G37*
G36*
X65996Y81094D02*
Y57184D01*
X66074Y56794D01*
X66295Y56463D01*
X67518Y55240D01*
X67430Y54895D01*
X67230Y54538D01*
X66880Y54469D01*
X66487Y54206D01*
X66235D01*
X65841Y54469D01*
X65376Y54561D01*
X64912Y54469D01*
X64518Y54206D01*
X64266D01*
X63872Y54469D01*
X63408Y54561D01*
X62943Y54469D01*
X62550Y54206D01*
X62286Y53812D01*
X62194Y53347D01*
Y51422D01*
X61075D01*
X61054Y51454D01*
X60524Y51807D01*
X59900Y51931D01*
X59276Y51807D01*
X58746Y51454D01*
X58600Y51234D01*
X57900Y51447D01*
Y52850D01*
X52900D01*
Y48150D01*
X56458D01*
X59629Y44979D01*
X59960Y44758D01*
X60350Y44680D01*
X63700D01*
X64090Y44758D01*
X64421Y44979D01*
X65183Y45741D01*
X65499Y45676D01*
X65896Y45464D01*
X65993Y44976D01*
X66347Y44447D01*
X66876Y44093D01*
X67198Y44029D01*
X67460Y43301D01*
X64849Y40690D01*
X64524Y40907D01*
X63900Y41031D01*
X63276Y40907D01*
X62747Y40554D01*
X62393Y40024D01*
X62269Y39400D01*
X62393Y38776D01*
X62747Y38247D01*
X63276Y37893D01*
X63280Y37892D01*
X63511Y37132D01*
X58698Y32320D01*
X20322D01*
X16820Y35822D01*
Y47094D01*
X16742Y47484D01*
X16521Y47815D01*
X14964Y49372D01*
X14895Y49716D01*
X14610Y50142D01*
X14184Y50427D01*
X14165Y50431D01*
Y51144D01*
X14184Y51148D01*
X14610Y51433D01*
X14895Y51859D01*
X14995Y52362D01*
X14895Y52865D01*
X14610Y53291D01*
X14184Y53576D01*
X14165Y53580D01*
Y54294D01*
X14184Y54298D01*
X14610Y54583D01*
X14895Y55009D01*
X14995Y55512D01*
X14895Y56015D01*
X14610Y56441D01*
X14184Y56726D01*
X14165Y56730D01*
Y57443D01*
X14184Y57447D01*
X14610Y57732D01*
X14895Y58158D01*
X14995Y58661D01*
X14895Y59164D01*
X14610Y59591D01*
X14441Y59704D01*
X14390Y60470D01*
X14402Y60507D01*
X14764Y60836D01*
X19387D01*
X19446Y60747D01*
X19976Y60393D01*
X20600Y60269D01*
X21224Y60393D01*
X21754Y60747D01*
X21912Y60983D01*
X22705Y61000D01*
X22720Y60988D01*
X22791Y60882D01*
X23111Y60668D01*
X23236Y60565D01*
Y59879D01*
X23217Y59876D01*
X22791Y59591D01*
X22506Y59164D01*
X22406Y58661D01*
X22506Y58158D01*
X22791Y57732D01*
X23217Y57447D01*
X23236Y57443D01*
Y56730D01*
X23217Y56726D01*
X22791Y56441D01*
X22506Y56015D01*
X22406Y55512D01*
X22506Y55009D01*
X22791Y54583D01*
X23217Y54298D01*
X23236Y54294D01*
Y53580D01*
X23217Y53576D01*
X22791Y53291D01*
X22506Y52865D01*
X22406Y52362D01*
X22506Y51859D01*
X22791Y51433D01*
X23217Y51148D01*
X23236Y51144D01*
Y50431D01*
X23217Y50427D01*
X22791Y50142D01*
X22506Y49716D01*
X22406Y49213D01*
X22506Y48710D01*
X22791Y48283D01*
X23217Y47998D01*
X23236Y47995D01*
Y47281D01*
X23217Y47277D01*
X22791Y46992D01*
X22506Y46566D01*
X22406Y46063D01*
X22506Y45560D01*
X22791Y45134D01*
X23217Y44849D01*
X23720Y44749D01*
X30217D01*
X30720Y44849D01*
X31146Y45134D01*
X31431Y45560D01*
X31499Y45904D01*
X46191Y60595D01*
X51138D01*
X51280Y60462D01*
X51614Y59895D01*
X51564Y59646D01*
X51657Y59182D01*
X51920Y58788D01*
X52313Y58525D01*
X52778Y58433D01*
X57109D01*
X57573Y58525D01*
X57835Y58700D01*
X58511D01*
X58547Y58647D01*
X59076Y58293D01*
X59700Y58169D01*
X60324Y58293D01*
X60853Y58647D01*
X61207Y59176D01*
X61331Y59800D01*
X61207Y60424D01*
X60853Y60953D01*
X60324Y61307D01*
X59700Y61431D01*
X59076Y61307D01*
X58960Y61230D01*
X58323Y61615D01*
X58230Y62080D01*
X57967Y62473D01*
Y62725D01*
X58230Y63119D01*
X58323Y63583D01*
X58230Y64048D01*
X58018Y64568D01*
X58230Y65087D01*
X58323Y65552D01*
X58230Y66017D01*
X58018Y66536D01*
X58230Y67056D01*
X58323Y67520D01*
X58230Y67985D01*
X57967Y68379D01*
Y68631D01*
X58230Y69024D01*
X58323Y69489D01*
X58230Y69954D01*
X57967Y70347D01*
Y70599D01*
X58230Y70993D01*
X58323Y71457D01*
X58230Y71922D01*
X57967Y72316D01*
Y72568D01*
X58230Y72961D01*
X58323Y73426D01*
X58230Y73891D01*
X58018Y74410D01*
X58230Y74930D01*
X58323Y75394D01*
X58230Y75859D01*
X57967Y76253D01*
Y76505D01*
X58230Y76898D01*
X58323Y77363D01*
X58230Y77828D01*
X57967Y78221D01*
Y78473D01*
X58230Y78867D01*
X58323Y79331D01*
X58230Y79796D01*
X58214Y79821D01*
X58029Y80272D01*
X58379Y80737D01*
X59787Y82145D01*
X60008Y82476D01*
X60085Y82866D01*
Y85108D01*
X60302Y85252D01*
X60520Y85580D01*
X61314Y85777D01*
X65996Y81094D01*
D02*
G37*
G36*
X87164Y148465D02*
Y133485D01*
X96238D01*
Y147968D01*
X96733Y148462D01*
X140920Y148453D01*
Y133485D01*
X149994D01*
Y147898D01*
X150512Y148369D01*
X150951Y148325D01*
X152218Y147941D01*
X153386Y147317D01*
X154410Y146476D01*
X155250Y145452D01*
X155875Y144284D01*
X156259Y143017D01*
X156378Y141815D01*
X156359Y141720D01*
Y8563D01*
X156357Y7865D01*
X156357Y7865D01*
Y7865D01*
X156295Y7192D01*
X156231Y6547D01*
X155846Y5279D01*
X155222Y4111D01*
X154382Y3087D01*
X153358Y2247D01*
X152190Y1623D01*
X150922Y1238D01*
X149646Y1112D01*
X149600Y1122D01*
X7948D01*
X7865Y1138D01*
Y1138D01*
X7861Y1134D01*
X6547Y1264D01*
X5279Y1648D01*
X4111Y2273D01*
X3087Y3113D01*
X2247Y4137D01*
X1622Y5305D01*
X1238Y6572D01*
X1118Y7785D01*
X1122Y7800D01*
Y37603D01*
X1641Y37821D01*
X1822Y37837D01*
X13879Y25779D01*
X14210Y25558D01*
X14600Y25480D01*
X60568D01*
X60958Y25558D01*
X61289Y25779D01*
X81845Y46335D01*
X82066Y46666D01*
X82144Y47056D01*
Y47065D01*
X82241Y47725D01*
X85358D01*
X85648Y47025D01*
X81379Y42756D01*
X81158Y42425D01*
X81080Y42035D01*
Y41139D01*
X80437Y40944D01*
X80431Y40944D01*
X80305Y40990D01*
X79906Y41256D01*
X79365Y41364D01*
X78823Y41256D01*
X78364Y40950D01*
X78058Y40491D01*
X77950Y39950D01*
Y33650D01*
X78058Y33109D01*
X78325Y32710D01*
Y29566D01*
X74679Y25921D01*
X74458Y25590D01*
X74380Y25200D01*
Y19250D01*
X72900D01*
Y14550D01*
X74380D01*
Y9476D01*
X73145D01*
Y5324D01*
X78282D01*
Y9476D01*
X76420D01*
Y14550D01*
X77900D01*
Y15880D01*
X82651D01*
Y14827D01*
X87001D01*
Y19373D01*
X82651D01*
Y17920D01*
X77900D01*
Y19250D01*
X76420D01*
Y24778D01*
X80065Y28423D01*
X80286Y28754D01*
X80364Y29144D01*
Y32522D01*
X80584Y32650D01*
X81120D01*
X81579Y32344D01*
X82121Y32236D01*
X82662Y32344D01*
X83121Y32650D01*
X83876D01*
X84335Y32344D01*
X84876Y32236D01*
X85418Y32344D01*
X85877Y32650D01*
X86632D01*
X87091Y32344D01*
X87632Y32236D01*
X88174Y32344D01*
X88297Y32426D01*
X89077Y32150D01*
X89132Y31915D01*
X89112Y31801D01*
X88793Y31324D01*
X88669Y30700D01*
X88793Y30076D01*
X89147Y29546D01*
X89676Y29193D01*
X90300Y29069D01*
X90924Y29193D01*
X91453Y29546D01*
X91807Y30076D01*
X91931Y30700D01*
X91807Y31324D01*
X91453Y31854D01*
X91387Y31898D01*
Y32649D01*
X91388Y32650D01*
X91695Y33109D01*
X91803Y33650D01*
Y39950D01*
X91695Y40491D01*
X91388Y40950D01*
X90930Y41256D01*
X90388Y41364D01*
X89847Y41256D01*
X89388Y40950D01*
X89316D01*
X88818Y41466D01*
X88806Y41701D01*
X93610Y46505D01*
X93831Y46836D01*
X93909Y47226D01*
Y48330D01*
X94057Y48552D01*
X94149Y49017D01*
Y53347D01*
X94057Y53812D01*
X93955Y53964D01*
Y65365D01*
X93877Y65755D01*
X93656Y66086D01*
X81021Y78721D01*
X80690Y78942D01*
X80300Y79020D01*
X76855D01*
X76424Y79307D01*
X76370Y79318D01*
X76140Y80077D01*
X76730Y80667D01*
X78013D01*
X78078Y80680D01*
X87300D01*
X87690Y80758D01*
X88021Y80979D01*
X107122Y100080D01*
X116228D01*
X116618Y100158D01*
X116948Y100379D01*
X121980Y105410D01*
X126462D01*
Y120390D01*
X120538D01*
Y106852D01*
X115805Y102120D01*
X107834D01*
X107566Y102766D01*
X110191Y105391D01*
X111695D01*
X111794Y105410D01*
X116620D01*
Y120390D01*
X110695D01*
Y107430D01*
X109768D01*
X109378Y107352D01*
X109047Y107131D01*
X107477Y105561D01*
X106777Y105851D01*
Y120390D01*
X100853D01*
Y114955D01*
X100200Y114922D01*
X99771Y114836D01*
X99407Y114593D01*
X99407Y114593D01*
X94607Y109793D01*
X94364Y109429D01*
X94278Y109000D01*
X94278Y109000D01*
Y107714D01*
X92986Y106422D01*
X91700D01*
X91700Y106422D01*
X91271Y106336D01*
X90907Y106093D01*
X86272Y101458D01*
X86028Y101094D01*
X85943Y100664D01*
X85943Y100664D01*
Y100320D01*
X85908Y100268D01*
X85816Y99804D01*
Y95473D01*
X85908Y95009D01*
X86172Y94615D01*
X86565Y94352D01*
X87030Y94259D01*
X87279Y94309D01*
X87846Y93976D01*
X87979Y93834D01*
Y92526D01*
X88056Y92136D01*
X88258Y91834D01*
X88209Y91638D01*
X88018Y91168D01*
X87700Y91231D01*
X87292Y91150D01*
X84185Y94257D01*
Y94965D01*
X84214Y95009D01*
X84307Y95473D01*
Y99804D01*
X84214Y100268D01*
X83951Y100662D01*
X83557Y100925D01*
X83093Y101018D01*
X82628Y100925D01*
X82235Y100662D01*
X81983D01*
X81589Y100925D01*
X81124Y101018D01*
X80660Y100925D01*
X80266Y100662D01*
X80014D01*
X79620Y100925D01*
X79156Y101018D01*
X78691Y100925D01*
X78298Y100662D01*
X78046D01*
X77652Y100925D01*
X77187Y101018D01*
X76723Y100925D01*
X76329Y100662D01*
X76077D01*
X75683Y100925D01*
X75219Y101018D01*
X74970Y100968D01*
X74403Y101302D01*
X74270Y101444D01*
Y113526D01*
X81191Y120447D01*
X85674D01*
Y127553D01*
X83320D01*
Y130700D01*
X84650D01*
Y135700D01*
X79950D01*
Y130700D01*
X81280D01*
Y127553D01*
X79750D01*
Y121889D01*
X73001Y115141D01*
X72302Y115431D01*
Y120447D01*
X74650D01*
Y127553D01*
X73420D01*
Y130900D01*
X74750D01*
Y135900D01*
X70050D01*
Y130900D01*
X71380D01*
Y127553D01*
X68726D01*
Y120447D01*
X70262D01*
Y111570D01*
X69562Y111280D01*
X63020Y117822D01*
Y129502D01*
X62942Y129893D01*
X62721Y130223D01*
X61053Y131892D01*
Y136374D01*
X58620D01*
Y140650D01*
X60100D01*
Y145350D01*
X55100D01*
Y140650D01*
X56580D01*
Y136374D01*
X53947D01*
Y130450D01*
X59611D01*
X60980Y129080D01*
Y125350D01*
X53947D01*
Y119426D01*
X56480D01*
Y115250D01*
X56300D01*
Y110550D01*
X60904D01*
X61495Y109931D01*
X61469Y109800D01*
X61593Y109176D01*
X61946Y108647D01*
X62476Y108293D01*
X62757Y108237D01*
Y107523D01*
X62676Y107507D01*
X62147Y107153D01*
X61793Y106624D01*
X61669Y106000D01*
X61793Y105376D01*
X62147Y104847D01*
X62286Y104753D01*
Y100268D01*
X62194Y99804D01*
Y95473D01*
X62286Y95009D01*
X62550Y94615D01*
X62943Y94352D01*
X63408Y94259D01*
X63872Y94352D01*
X64266Y94615D01*
X64518D01*
X64912Y94352D01*
X65376Y94259D01*
X65841Y94352D01*
X66235Y94615D01*
X66487D01*
X66880Y94352D01*
X67345Y94259D01*
X67809Y94352D01*
X68203Y94615D01*
X68455D01*
X68849Y94352D01*
X69313Y94259D01*
X69778Y94352D01*
X70172Y94615D01*
X70424D01*
X70817Y94352D01*
X71282Y94259D01*
X71746Y94352D01*
X72140Y94615D01*
X72392D01*
X72786Y94352D01*
X73250Y94259D01*
X73499Y94309D01*
X74066Y93976D01*
X74199Y93834D01*
Y85829D01*
X73270Y84900D01*
X73112Y84931D01*
X72488Y84807D01*
X71959Y84453D01*
X71605Y83924D01*
X69324D01*
X69221Y83821D01*
X45421Y107621D01*
X45090Y107842D01*
X44700Y107920D01*
X42682D01*
X42291Y107842D01*
X42271Y107829D01*
X39582Y110518D01*
X39382Y110318D01*
X38759Y110941D01*
X38949Y111400D01*
Y115556D01*
X38977D01*
Y118034D01*
X39061Y118456D01*
X38977Y118878D01*
X38977Y121356D01*
X39533Y121703D01*
X45364D01*
X45823Y121893D01*
X46014Y122352D01*
Y147978D01*
X46509Y148473D01*
X87164Y148465D01*
D02*
G37*
%LPC*%
G36*
X23622Y92568D02*
X22850Y92414D01*
X22196Y91977D01*
X21759Y91323D01*
X21605Y90551D01*
X21759Y89779D01*
X22196Y89125D01*
X22850Y88688D01*
X23622Y88534D01*
X24394Y88688D01*
X25048Y89125D01*
X25485Y89779D01*
X25639Y90551D01*
X25485Y91323D01*
X25048Y91977D01*
X24394Y92414D01*
X23622Y92568D01*
D02*
G37*
G36*
Y41387D02*
X22850Y41233D01*
X22196Y40796D01*
X21759Y40142D01*
X21605Y39370D01*
X21759Y38598D01*
X22196Y37944D01*
X22850Y37507D01*
X23622Y37353D01*
X24394Y37507D01*
X25048Y37944D01*
X25485Y38598D01*
X25639Y39370D01*
X25485Y40142D01*
X25048Y40796D01*
X24394Y41233D01*
X23622Y41387D01*
D02*
G37*
G36*
X60349Y106273D02*
X55999D01*
Y101727D01*
X57154D01*
Y100959D01*
X57147Y100953D01*
X56793Y100424D01*
X56669Y99800D01*
X56793Y99176D01*
X57147Y98646D01*
X57676Y98293D01*
X58300Y98169D01*
X58924Y98293D01*
X59453Y98646D01*
X59807Y99176D01*
X59931Y99800D01*
X59807Y100424D01*
X59453Y100953D01*
X59344Y101027D01*
X59494Y101727D01*
X60349D01*
Y106273D01*
D02*
G37*
G36*
X141300Y97531D02*
X140676Y97407D01*
X140147Y97053D01*
X139793Y96524D01*
X139669Y95900D01*
X139793Y95276D01*
X140147Y94747D01*
X140676Y94393D01*
X141300Y94269D01*
X141338Y94276D01*
X145926Y89688D01*
Y88322D01*
X143799D01*
X143296Y88222D01*
X142870Y87937D01*
X142585Y87511D01*
X142485Y87008D01*
X142585Y86505D01*
X142870Y86079D01*
X143296Y85794D01*
X143315Y85790D01*
Y85076D01*
X143296Y85072D01*
X142870Y84787D01*
X142585Y84361D01*
X142584Y84356D01*
X141824Y84125D01*
X138920Y87030D01*
Y91200D01*
X138842Y91590D01*
X138621Y91921D01*
X136521Y94021D01*
X136190Y94242D01*
X135800Y94320D01*
X123100D01*
X122710Y94242D01*
X122379Y94021D01*
X118552Y90194D01*
X104182D01*
X104030Y90295D01*
X103565Y90388D01*
X99235D01*
X98770Y90295D01*
X98376Y90032D01*
X98113Y89639D01*
X98021Y89174D01*
X98113Y88709D01*
X98376Y88316D01*
X98770Y88052D01*
X99235Y87960D01*
X103565D01*
X104030Y88052D01*
X104182Y88154D01*
X118974D01*
X119364Y88232D01*
X119695Y88453D01*
X123522Y92280D01*
X125056D01*
X125430Y91580D01*
X125393Y91524D01*
X125269Y90900D01*
X125276Y90862D01*
X120772Y86359D01*
X104030D01*
X103565Y86451D01*
X99235D01*
X98770Y86358D01*
X98376Y86095D01*
X98113Y85702D01*
X98021Y85237D01*
X98113Y84772D01*
X98325Y84253D01*
X98113Y83733D01*
X98021Y83268D01*
X98113Y82804D01*
X98325Y82284D01*
X98113Y81765D01*
X98021Y81300D01*
X98113Y80835D01*
X98376Y80442D01*
Y80190D01*
X98113Y79796D01*
X98021Y79331D01*
X98113Y78867D01*
X98376Y78473D01*
Y78221D01*
X98113Y77828D01*
X98021Y77363D01*
X98113Y76898D01*
X98376Y76505D01*
Y76253D01*
X98113Y75859D01*
X98021Y75394D01*
X98113Y74930D01*
X98376Y74536D01*
Y74284D01*
X98113Y73891D01*
X98021Y73426D01*
X98070Y73177D01*
X97737Y72610D01*
X97595Y72477D01*
X96496D01*
X96407Y72924D01*
X96053Y73453D01*
X95524Y73807D01*
X94900Y73931D01*
X94276Y73807D01*
X93747Y73453D01*
X93393Y72924D01*
X93269Y72300D01*
X93393Y71676D01*
X93747Y71147D01*
Y70787D01*
X93546Y70653D01*
X93193Y70124D01*
X93069Y69500D01*
X93193Y68876D01*
X93546Y68347D01*
X94076Y67993D01*
X94700Y67869D01*
X95324Y67993D01*
X95854Y68347D01*
X95939Y68475D01*
X97599D01*
X97743Y68338D01*
X98071Y67775D01*
X98021Y67520D01*
X98113Y67056D01*
X98325Y66536D01*
X98113Y66017D01*
X98021Y65552D01*
X98113Y65087D01*
X98325Y64568D01*
X98113Y64048D01*
X98021Y63583D01*
X98113Y63119D01*
X98376Y62725D01*
Y62473D01*
X98113Y62080D01*
X98021Y61615D01*
X98113Y61150D01*
X98376Y60757D01*
Y60505D01*
X98113Y60111D01*
X98021Y59646D01*
X98113Y59182D01*
X98376Y58788D01*
X98770Y58525D01*
X99086Y58462D01*
X99425Y57811D01*
X97907Y56293D01*
X97664Y55929D01*
X97578Y55500D01*
X97578Y55500D01*
Y44775D01*
X97546Y44754D01*
X97193Y44224D01*
X97069Y43600D01*
X97193Y42976D01*
X97534Y42465D01*
Y40768D01*
X97349Y40491D01*
X97241Y39950D01*
Y33650D01*
X97349Y33109D01*
X97578Y32766D01*
Y30465D01*
X90856Y23742D01*
X90613Y23378D01*
X90527Y22949D01*
X90527Y22949D01*
Y19373D01*
X88399D01*
Y14827D01*
X88765D01*
Y9476D01*
X87318D01*
Y5324D01*
X92455D01*
Y9476D01*
X91008D01*
Y14827D01*
X92749D01*
Y18066D01*
X92770Y18175D01*
X92770Y18175D01*
Y22484D01*
X99493Y29207D01*
X99736Y29571D01*
X99822Y30000D01*
X99822Y30000D01*
Y32273D01*
X100102Y32452D01*
X100522Y32577D01*
X100871Y32344D01*
X101412Y32236D01*
X101953Y32344D01*
X102352Y32610D01*
X102479Y32656D01*
X102485Y32656D01*
X103128Y32461D01*
Y19573D01*
X101951D01*
Y15027D01*
X106301D01*
Y19573D01*
X105167D01*
Y32649D01*
X105168Y32650D01*
X105475Y33109D01*
X105582Y33650D01*
Y39950D01*
X105475Y40491D01*
X105168Y40950D01*
X105060Y41022D01*
X104922Y41874D01*
X106527Y43478D01*
X113135D01*
X116250Y40364D01*
Y37100D01*
X120950D01*
Y40514D01*
X125302Y44866D01*
X125302Y44866D01*
X125319Y44892D01*
X125324Y44893D01*
X125854Y45246D01*
X126532Y45002D01*
X126761Y44849D01*
X127264Y44749D01*
X133760D01*
X134263Y44849D01*
X134689Y45134D01*
X134974Y45560D01*
X135074Y46063D01*
X134974Y46566D01*
X134689Y46992D01*
X134263Y47277D01*
X134244Y47281D01*
Y47995D01*
X134263Y47998D01*
X134689Y48283D01*
X134974Y48710D01*
X135074Y49213D01*
X134974Y49716D01*
X134689Y50142D01*
X134263Y50427D01*
X134244Y50431D01*
Y51144D01*
X134263Y51148D01*
X134689Y51433D01*
X134974Y51859D01*
X135074Y52362D01*
X134974Y52865D01*
X134689Y53291D01*
X134263Y53576D01*
X134244Y53580D01*
Y54294D01*
X134263Y54298D01*
X134689Y54583D01*
X134974Y55009D01*
X135074Y55512D01*
X134974Y56015D01*
X134689Y56441D01*
X134263Y56726D01*
X134244Y56730D01*
Y57443D01*
X134263Y57447D01*
X134689Y57732D01*
X134974Y58158D01*
X135074Y58661D01*
X134974Y59164D01*
X134689Y59591D01*
X134263Y59876D01*
X134244Y59879D01*
Y60593D01*
X134263Y60597D01*
X134689Y60882D01*
X134974Y61308D01*
X135074Y61811D01*
X134974Y62314D01*
X134689Y62740D01*
X134263Y63025D01*
X134244Y63029D01*
Y63743D01*
X134263Y63747D01*
X134689Y64031D01*
X134974Y64458D01*
X135074Y64961D01*
X134974Y65464D01*
X134689Y65890D01*
X134263Y66175D01*
X134244Y66179D01*
Y66892D01*
X134263Y66896D01*
X134689Y67181D01*
X134974Y67607D01*
X135074Y68110D01*
X134974Y68613D01*
X134689Y69039D01*
X134263Y69324D01*
X134244Y69328D01*
Y70042D01*
X134263Y70046D01*
X134689Y70331D01*
X134974Y70757D01*
X135074Y71260D01*
X134974Y71763D01*
X134689Y72189D01*
X134263Y72474D01*
X134244Y72478D01*
Y73191D01*
X134263Y73195D01*
X134689Y73480D01*
X134974Y73906D01*
X135074Y74409D01*
X134974Y74912D01*
X134689Y75339D01*
X134263Y75624D01*
X134244Y75627D01*
Y76341D01*
X134263Y76345D01*
X134689Y76630D01*
X134974Y77056D01*
X135074Y77559D01*
X134974Y78062D01*
X134689Y78488D01*
X134263Y78773D01*
X134244Y78777D01*
Y79491D01*
X134263Y79495D01*
X134689Y79779D01*
X134974Y80206D01*
X135074Y80709D01*
X134974Y81212D01*
X134689Y81638D01*
X134263Y81923D01*
X134244Y81927D01*
Y82640D01*
X134263Y82644D01*
X134689Y82929D01*
X134974Y83355D01*
X135074Y83858D01*
X134974Y84361D01*
X134689Y84788D01*
X134263Y85072D01*
X133760Y85172D01*
X127264D01*
X126761Y85072D01*
X126335Y84788D01*
X126050Y84361D01*
X125950Y83858D01*
X126050Y83355D01*
X126335Y82929D01*
X126435Y82862D01*
X126496Y82037D01*
X126162Y81728D01*
X118214D01*
X116526Y83415D01*
X116816Y84115D01*
X121237D01*
X121237Y84115D01*
X121666Y84201D01*
X122030Y84444D01*
X126862Y89276D01*
X126900Y89269D01*
X127524Y89393D01*
X128053Y89746D01*
X128407Y90276D01*
X128531Y90900D01*
X128407Y91524D01*
X128370Y91580D01*
X128744Y92280D01*
X131793D01*
X132167Y91580D01*
X131995Y91323D01*
X131842Y90551D01*
X131995Y89779D01*
X132432Y89125D01*
X133087Y88688D01*
X133858Y88534D01*
X134630Y88688D01*
X135284Y89125D01*
X135722Y89779D01*
X135875Y90551D01*
X135858Y90637D01*
X136502Y90987D01*
X136880Y90691D01*
Y86608D01*
X136958Y86218D01*
X137179Y85887D01*
X142517Y80549D01*
X142585Y80206D01*
X142870Y79779D01*
X142939Y79733D01*
X143004Y78893D01*
X142689Y78599D01*
X139757D01*
X139654Y78754D01*
X139124Y79107D01*
X138500Y79231D01*
X137876Y79107D01*
X137346Y78754D01*
X136993Y78224D01*
X136869Y77600D01*
X136993Y76976D01*
X137346Y76446D01*
X137460Y76371D01*
Y75529D01*
X137346Y75454D01*
X136993Y74924D01*
X136869Y74300D01*
X136993Y73676D01*
X137231Y73319D01*
X137302Y72850D01*
X137231Y72381D01*
X136993Y72024D01*
X136869Y71400D01*
X136993Y70776D01*
X137346Y70246D01*
X137876Y69893D01*
X138500Y69769D01*
X139124Y69893D01*
X139654Y70246D01*
X139696Y70310D01*
X142900D01*
X143296Y70046D01*
X143315Y70042D01*
Y69328D01*
X143296Y69324D01*
X142870Y69039D01*
X142585Y68613D01*
X142485Y68110D01*
X142585Y67607D01*
X142870Y67181D01*
X143296Y66896D01*
X143315Y66892D01*
Y66179D01*
X143296Y66175D01*
X142870Y65890D01*
X142585Y65464D01*
X142485Y64961D01*
X142585Y64458D01*
X142870Y64031D01*
X143131Y63857D01*
X143168Y63215D01*
X143135Y63076D01*
X142741Y62725D01*
X139673D01*
X139654Y62753D01*
X139124Y63107D01*
X138500Y63231D01*
X137876Y63107D01*
X137346Y62753D01*
X136993Y62224D01*
X136869Y61600D01*
X136993Y60976D01*
X137346Y60447D01*
Y59754D01*
X136993Y59224D01*
X136869Y58600D01*
X136993Y57976D01*
X137346Y57446D01*
Y56653D01*
X136993Y56124D01*
X136869Y55500D01*
X136993Y54876D01*
X137346Y54347D01*
Y53553D01*
X136993Y53024D01*
X136869Y52400D01*
X136993Y51776D01*
X137346Y51247D01*
X137876Y50893D01*
X138500Y50769D01*
X139124Y50893D01*
X139654Y51247D01*
X139730Y51362D01*
X142977D01*
X143296Y51148D01*
X143315Y51144D01*
Y50431D01*
X143296Y50427D01*
X142870Y50142D01*
X142585Y49716D01*
X142485Y49213D01*
X142585Y48710D01*
X142870Y48283D01*
X143296Y47998D01*
X143315Y47995D01*
Y47281D01*
X143296Y47277D01*
X142870Y46992D01*
X142585Y46566D01*
X142485Y46063D01*
X142585Y45560D01*
X142870Y45134D01*
X143296Y44849D01*
X143799Y44749D01*
X150295D01*
X150798Y44849D01*
X151225Y45134D01*
X151509Y45560D01*
X151610Y46063D01*
X151509Y46566D01*
X151225Y46992D01*
X150798Y47277D01*
X150779Y47281D01*
Y47995D01*
X150798Y47998D01*
X151225Y48283D01*
X151509Y48710D01*
X151610Y49213D01*
X151509Y49716D01*
X151225Y50142D01*
X150798Y50427D01*
X150779Y50431D01*
Y51144D01*
X150798Y51148D01*
X151225Y51433D01*
X151509Y51859D01*
X151610Y52362D01*
X151509Y52865D01*
X151225Y53291D01*
X150798Y53576D01*
X150779Y53580D01*
Y54294D01*
X150798Y54298D01*
X151225Y54583D01*
X151509Y55009D01*
X151610Y55512D01*
X151509Y56015D01*
X151225Y56441D01*
X150798Y56726D01*
X150779Y56730D01*
Y57443D01*
X150798Y57447D01*
X151225Y57732D01*
X151509Y58158D01*
X151610Y58661D01*
X151509Y59164D01*
X151225Y59591D01*
X150798Y59876D01*
X150779Y59879D01*
Y60593D01*
X150798Y60597D01*
X151225Y60882D01*
X151509Y61308D01*
X151610Y61811D01*
X151509Y62314D01*
X151225Y62740D01*
X150798Y63025D01*
X150779Y63029D01*
Y63743D01*
X150798Y63746D01*
X151225Y64031D01*
X151509Y64458D01*
X151610Y64961D01*
X151509Y65464D01*
X151225Y65890D01*
X150798Y66175D01*
X150779Y66179D01*
Y66892D01*
X150798Y66896D01*
X151225Y67181D01*
X151509Y67607D01*
X151610Y68110D01*
X151509Y68613D01*
X151225Y69039D01*
X150798Y69324D01*
X150779Y69328D01*
Y70042D01*
X150798Y70046D01*
X151225Y70331D01*
X151509Y70757D01*
X151610Y71260D01*
X151509Y71763D01*
X151225Y72189D01*
X150798Y72474D01*
X150779Y72478D01*
Y73191D01*
X150798Y73195D01*
X151225Y73480D01*
X151509Y73906D01*
X151610Y74410D01*
X151509Y74912D01*
X151225Y75339D01*
X150798Y75624D01*
X150779Y75627D01*
Y76341D01*
X150798Y76345D01*
X151225Y76630D01*
X151509Y77056D01*
X151610Y77559D01*
X151509Y78062D01*
X151225Y78488D01*
X150798Y78773D01*
X150779Y78777D01*
Y79491D01*
X150798Y79495D01*
X151225Y79779D01*
X151509Y80206D01*
X151610Y80709D01*
X151509Y81212D01*
X151225Y81638D01*
X150798Y81923D01*
X150779Y81927D01*
Y82640D01*
X150798Y82644D01*
X151225Y82929D01*
X151509Y83355D01*
X151610Y83858D01*
X151509Y84361D01*
X151225Y84787D01*
X150798Y85072D01*
X150779Y85076D01*
Y85790D01*
X150798Y85794D01*
X151225Y86079D01*
X151509Y86505D01*
X151610Y87008D01*
X151509Y87511D01*
X151225Y87937D01*
X150798Y88222D01*
X150295Y88322D01*
X148169D01*
Y90153D01*
X148083Y90582D01*
X147840Y90946D01*
X147840Y90946D01*
X142924Y95862D01*
X142931Y95900D01*
X142807Y96524D01*
X142454Y97053D01*
X141924Y97407D01*
X141300Y97531D01*
D02*
G37*
G36*
X133858Y41387D02*
X133087Y41233D01*
X132432Y40796D01*
X131995Y40142D01*
X131842Y39370D01*
X131995Y38598D01*
X132432Y37944D01*
X133087Y37507D01*
X133858Y37353D01*
X134630Y37507D01*
X135284Y37944D01*
X135722Y38598D01*
X135875Y39370D01*
X135722Y40142D01*
X135284Y40796D01*
X134630Y41233D01*
X133858Y41387D01*
D02*
G37*
G36*
X7874Y12847D02*
X6587Y12678D01*
X5387Y12181D01*
X4357Y11391D01*
X3567Y10361D01*
X3070Y9161D01*
X2901Y7874D01*
X3070Y6587D01*
X3567Y5387D01*
X4357Y4357D01*
X5387Y3567D01*
X6587Y3070D01*
X7874Y2901D01*
X9161Y3070D01*
X10361Y3567D01*
X11391Y4357D01*
X12181Y5387D01*
X12678Y6587D01*
X12847Y7874D01*
X12678Y9161D01*
X12181Y10361D01*
X11391Y11391D01*
X10361Y12181D01*
X9161Y12678D01*
X7874Y12847D01*
D02*
G37*
%LPD*%
G36*
X108578Y56435D02*
Y53150D01*
X107200D01*
Y48450D01*
X112200D01*
Y53150D01*
X110822D01*
Y55822D01*
X111468Y56090D01*
X112767Y54791D01*
X113098Y54570D01*
X113488Y54492D01*
X126470D01*
X126761Y54298D01*
X126780Y54294D01*
Y53580D01*
X126761Y53576D01*
X126335Y53291D01*
X126050Y52865D01*
X125950Y52362D01*
X126050Y51859D01*
X126335Y51433D01*
X126761Y51148D01*
X126780Y51144D01*
Y50431D01*
X126761Y50427D01*
X126335Y50142D01*
X126050Y49716D01*
X125950Y49213D01*
X126050Y48710D01*
X126335Y48283D01*
X126220Y47679D01*
X125854Y47554D01*
X125324Y47907D01*
X124700Y48031D01*
X124076Y47907D01*
X123547Y47554D01*
X123193Y47024D01*
X123069Y46400D01*
X123167Y45904D01*
X119364Y42100D01*
X117686D01*
X114393Y45393D01*
X114029Y45636D01*
X113600Y45722D01*
X113600Y45722D01*
X106062D01*
X105633Y45636D01*
X105269Y45393D01*
X105269Y45393D01*
X101198Y41322D01*
X100871Y41256D01*
X100478Y40994D01*
X100167Y41070D01*
X99778Y41261D01*
Y42396D01*
X99853Y42447D01*
X100207Y42976D01*
X100331Y43600D01*
X100207Y44224D01*
X99853Y44754D01*
X99822Y44775D01*
Y55035D01*
X102135Y57349D01*
X102135Y57349D01*
X102378Y57713D01*
X102463Y58142D01*
Y58433D01*
X103565D01*
X104030Y58525D01*
X104424Y58788D01*
X104687Y59182D01*
X104713Y59311D01*
X105456Y59558D01*
X108578Y56435D01*
D02*
G37*
D10*
X109700Y50800D02*
Y56900D01*
X105020Y61580D02*
X109700Y56900D01*
X101435Y61580D02*
X105020D01*
X98700Y30000D02*
Y36800D01*
X95294Y105406D02*
X96294D01*
X118600Y39750D02*
X124509Y45659D01*
Y46209D02*
X124700Y46400D01*
X124509Y45659D02*
Y46209D01*
X117350Y41000D02*
X118600Y39750D01*
X63408Y50384D02*
Y51182D01*
X63324Y50300D02*
X63408Y50384D01*
X59900Y50300D02*
X63324D01*
X96294Y105406D02*
X99800Y101900D01*
X63300Y106000D02*
X63408Y105892D01*
Y97639D02*
Y105892D01*
X95400Y107280D02*
Y109000D01*
X95294Y105406D02*
Y107174D01*
X95400Y107280D01*
Y109000D02*
X100200Y113800D01*
X102915D02*
X103815Y112900D01*
X91700Y105300D02*
X93420D01*
X100200Y113800D02*
X102915D01*
X87064Y97673D02*
Y100664D01*
X91700Y105300D01*
X93420D02*
X93526Y105406D01*
X98700Y55500D02*
X101342Y58142D01*
X98700Y43600D02*
Y55500D01*
X98656Y36800D02*
Y43556D01*
X98700Y43600D01*
X101400Y61615D02*
X101435Y61580D01*
X101342Y58142D02*
Y59563D01*
X101400Y59621D01*
Y59646D01*
X118600Y39600D02*
Y39750D01*
X141300Y95900D02*
X147047Y90153D01*
Y87008D02*
Y90153D01*
X101400Y85237D02*
X121237D01*
X126900Y90900D01*
X98700Y36800D02*
X101412D01*
X117200Y41000D02*
X117350D01*
X113600Y44600D02*
X117200Y41000D01*
X106062Y44600D02*
X113600D01*
X101412Y36800D02*
Y39950D01*
X106062Y44600D01*
X91649Y22949D02*
X98700Y30000D01*
X90574Y17100D02*
X91649Y18175D01*
Y22949D01*
X89887Y7400D02*
Y16413D01*
X90574Y17100D01*
X87030Y97639D02*
X87064Y97673D01*
X93526Y105406D02*
X95294D01*
D12*
X48500Y85200D02*
X54906D01*
X54943Y85237D01*
X46273Y82973D02*
X48500Y85200D01*
X45153Y87153D02*
X54891D01*
X45100Y87100D02*
X45153Y87153D01*
X54891D02*
X54943Y87205D01*
X39066Y103285D02*
X42682Y106900D01*
X39066Y98797D02*
Y103285D01*
X37831Y93131D02*
X43508Y98808D01*
X35232Y95068D02*
X37169Y93131D01*
X35232Y95068D02*
X35232D01*
X37169Y93131D02*
X37831D01*
X105417Y63583D02*
X113488Y55512D01*
X101400Y63583D02*
X105417D01*
X113488Y55512D02*
X130512D01*
X94700Y69500D02*
X94705Y69494D01*
X101394D01*
X75219Y85407D02*
Y97639D01*
X72900Y59800D02*
Y78279D01*
X76308Y81687D02*
X78013D01*
X72900Y78279D02*
X76308Y81687D01*
X70400Y77759D02*
X76141Y83500D01*
X86858D01*
X70400Y60747D02*
Y77759D01*
X73112Y83300D02*
X75219Y85407D01*
X59066Y82866D02*
Y86323D01*
X59148Y86406D01*
X45154Y103378D02*
X67016Y81516D01*
X43647Y103378D02*
X45154D01*
X67016Y57184D02*
Y81516D01*
X20595Y68105D02*
X20600Y68100D01*
X10438Y68105D02*
X20595D01*
X10463Y71230D02*
X20570D01*
X20600Y71200D01*
X10463Y64930D02*
X20570D01*
X20600Y64900D01*
X43508Y98808D02*
Y103238D01*
X43647Y103378D01*
X47600Y96800D02*
X47700D01*
X34658Y83858D02*
X47600Y96800D01*
X2500Y38600D02*
X14600Y26500D01*
X2500Y53976D02*
X7185Y58661D01*
X2500Y38600D02*
Y53976D01*
X4000Y39900D02*
X15600Y28300D01*
X5400Y50577D02*
X6996Y52173D01*
X5400Y40500D02*
X16000Y29900D01*
X5400Y40500D02*
Y50577D01*
X4000Y53496D02*
X5905Y55401D01*
X4000Y39900D02*
Y53496D01*
X57573Y81373D02*
X59066Y82866D01*
X54943Y81300D02*
X55016Y81373D01*
X57573D01*
X68500Y58128D02*
Y83100D01*
X44700Y106900D02*
X68500Y83100D01*
X42682Y106900D02*
X44700D01*
X60350Y45700D02*
X63700D01*
X55550Y50500D02*
X60350Y45700D01*
X63700D02*
X65376Y47376D01*
Y51182D01*
X55400Y50500D02*
X55550D01*
X67418Y45682D02*
X67500Y45600D01*
X67418Y45682D02*
Y51109D01*
X67345Y51182D02*
X67418Y51109D01*
X87300Y81700D02*
X106700Y101100D01*
X116228D01*
X123500Y108372D01*
X86858Y83500D02*
X109768Y106410D01*
X78026Y81700D02*
X87300D01*
X109768Y106410D02*
X111695D01*
X101400Y89174D02*
X118974D01*
X111695Y106410D02*
X113657Y108372D01*
X118974Y89174D02*
X123100Y93300D01*
X92935Y97576D02*
Y97639D01*
X93111Y97400D02*
X96400D01*
X92935Y97576D02*
X93111Y97400D01*
X65400Y102660D02*
Y107500D01*
X65388Y102648D02*
X65400Y102660D01*
X63128Y109772D02*
X65400Y107500D01*
X58174Y100126D02*
Y104000D01*
Y100126D02*
X58300Y100000D01*
Y99800D02*
Y100000D01*
X65206Y39605D02*
X73250Y47650D01*
X63900Y39400D02*
X64105Y39605D01*
X65206D01*
X59120Y31300D02*
X75219Y47399D01*
Y51182D01*
X19900Y31300D02*
X59120D01*
X137900Y86608D02*
X143799Y80709D01*
X138500Y77600D02*
X138521Y77579D01*
X135800Y93300D02*
X137900Y91200D01*
X123100Y93300D02*
X135800D01*
X143799Y80709D02*
X147047D01*
X137900Y86608D02*
Y91200D01*
X138521Y77579D02*
X147027D01*
X147047Y77559D01*
X101400Y83268D02*
X115232D01*
X117791Y80709D01*
X113857Y81300D02*
X117598Y77559D01*
X101400Y81300D02*
X113857D01*
X104147Y17321D02*
Y36800D01*
X77187Y88713D02*
Y97639D01*
Y88713D02*
X80400Y85500D01*
X79156Y90844D02*
Y97639D01*
Y90844D02*
X82000Y88000D01*
X26969Y83858D02*
X34658D01*
X30700Y114500D02*
X30716Y114516D01*
X37859Y107373D02*
X39513D01*
X28600Y110600D02*
X28731Y110731D01*
Y112700D01*
X34932Y102792D02*
Y102792D01*
X10478Y61856D02*
X20556D01*
X20595Y74405D02*
X20600Y74400D01*
X10453Y77579D02*
X20580D01*
X10544Y83748D02*
X20452D01*
X20546Y80654D02*
X20600Y80600D01*
X10438Y74405D02*
X20595D01*
X20580Y77579D02*
X20600Y77600D01*
X20452Y83748D02*
X20600Y83600D01*
X20556Y61856D02*
X20600Y61900D01*
X10487Y80654D02*
X20546D01*
X10433Y71260D02*
X10463Y71230D01*
X10433Y68110D02*
X10438Y68105D01*
X10433Y80709D02*
X10487Y80654D01*
X10433Y74409D02*
X10438Y74405D01*
X10433Y77559D02*
X10453Y77579D01*
X10433Y83858D02*
X10544Y83748D01*
X10433Y61811D02*
X10478Y61856D01*
X10433Y64961D02*
X10463Y64930D01*
X25600Y112700D02*
X28731D01*
X24731Y113569D02*
X25600Y112700D01*
X28731D02*
Y118456D01*
X26747Y114716D02*
Y118440D01*
X26731Y114700D02*
X26747Y114716D01*
X30716Y114516D02*
Y118440D01*
X30700Y114500D02*
X30731D01*
X30700Y118456D02*
X30716Y118440D01*
X26747Y118440D02*
X26763Y118456D01*
X24731Y113569D02*
Y118393D01*
X24794Y118456D01*
X83166Y93834D02*
X87400Y89600D01*
X87700D01*
X83166Y93834D02*
Y97566D01*
X81124Y92876D02*
X83600Y90400D01*
X73250Y47650D02*
Y51182D01*
X50968Y83268D02*
X54943D01*
X49000Y81300D02*
X50968Y83268D01*
X36500Y81300D02*
X49000D01*
X31490Y71370D02*
X37483Y77363D01*
X27079Y71370D02*
X31490D01*
X26969Y74409D02*
X27047Y74488D01*
X31988D02*
X36832Y79331D01*
X27047Y74488D02*
X31988D01*
X26969Y71260D02*
X27079Y71370D01*
X36832Y79331D02*
X54943D01*
X37483Y77363D02*
X54943D01*
X32759Y77559D02*
X36500Y81300D01*
X26969Y77559D02*
X32759D01*
X33709Y80709D02*
X35973Y82973D01*
X26969Y80709D02*
X33709D01*
X35973Y82973D02*
X46273D01*
X37495Y75394D02*
X54943D01*
X30210Y68110D02*
X37495Y75394D01*
X26969Y68110D02*
X30210D01*
X38826Y73426D02*
X45720D01*
X30361Y64961D02*
X38826Y73426D01*
X26969Y64961D02*
X30361D01*
X30405Y62000D02*
X39863Y71457D01*
X54943D01*
X67016Y57184D02*
X69313Y54887D01*
Y51182D02*
Y54887D01*
X72800Y56800D02*
X72900Y56700D01*
X72800Y56800D02*
Y56800D01*
X70418Y59182D02*
X72800Y56800D01*
X70418Y59182D02*
Y60729D01*
X68500Y58128D02*
X71282Y55346D01*
Y51182D02*
Y55346D01*
X81124Y47056D02*
Y51182D01*
X60568Y26500D02*
X81124Y47056D01*
X79156Y47068D02*
Y51182D01*
X60388Y28300D02*
X79156Y47068D01*
X77200Y47092D02*
Y51169D01*
X60008Y29900D02*
X77200Y47092D01*
X130512Y42913D02*
X137867D01*
X138233Y43279D02*
X138558D01*
X137867Y42913D02*
X138233Y43279D01*
X117791Y80709D02*
X130512D01*
X94900Y72300D02*
X95225D01*
X96067Y71457D01*
X101400D01*
X83093Y97639D02*
X83166Y97566D01*
X62000Y117400D02*
Y129502D01*
X58091Y133412D02*
X62000Y129502D01*
Y117400D02*
X69313Y110087D01*
Y97639D02*
Y110087D01*
X65388Y97650D02*
Y102648D01*
X58800Y112900D02*
X63600D01*
X65376Y97639D02*
X65388Y97650D01*
X67345Y97639D02*
X67400Y97694D01*
X63600Y112900D02*
X67400Y109100D01*
Y97694D02*
Y109100D01*
X57500Y114200D02*
X58800Y112900D01*
X73250Y97639D02*
Y113948D01*
X82712Y123409D02*
Y124000D01*
X73250Y113948D02*
X82712Y123409D01*
X71282Y97639D02*
Y123594D01*
X72400Y124712D01*
X82300Y124412D02*
X82712Y124000D01*
X82300Y124412D02*
Y133200D01*
X72400Y124712D02*
Y133400D01*
X15800Y35400D02*
X19900Y31300D01*
X15800Y35400D02*
Y47094D01*
X10433Y49213D02*
X13681D01*
X15800Y47094D01*
X104126Y17300D02*
X104147Y17321D01*
X79344Y29144D02*
Y36800D01*
X75400Y25200D02*
X79344Y29144D01*
X75400Y16900D02*
Y25200D01*
Y16900D02*
X84626D01*
X84826Y17100D01*
X75400Y8227D02*
X76327Y7300D01*
X75400Y8227D02*
Y16900D01*
X16000Y29900D02*
X60008D01*
X6996Y52173D02*
X10244D01*
X10433Y52362D01*
X14600Y26500D02*
X60568D01*
X15600Y28300D02*
X60388D01*
X75800Y78000D02*
X80300D01*
X75600Y77800D02*
X75800Y78000D01*
X75600Y74700D02*
X80800D01*
X75500Y74600D02*
X75600Y74700D01*
X75800Y68100D02*
X81800D01*
X75800Y71500D02*
X81500D01*
X45720Y73426D02*
X54943D01*
X45720Y73426D02*
X45720Y73426D01*
X30281Y58661D02*
X41109Y69489D01*
X54943D01*
X30217Y52362D02*
X43406Y65552D01*
X54943D01*
X30217Y55512D02*
X42225Y67520D01*
X54943D01*
X90967Y93548D02*
X92430Y92085D01*
X88998Y92526D02*
X89900Y91625D01*
X92430Y91900D02*
Y92085D01*
X89900Y91300D02*
Y91625D01*
X90300Y30900D02*
X90368Y30968D01*
X90300Y30700D02*
Y30900D01*
X90368Y30968D02*
Y36800D01*
X55016Y59719D02*
X59619D01*
X54943Y59646D02*
X55016Y59719D01*
X59619D02*
X59700Y59800D01*
X70400Y60747D02*
X70418Y60729D01*
X75100Y62200D02*
X80800D01*
X75200Y65100D02*
X81900D01*
X78013Y81687D02*
X78026Y81700D01*
X92935Y51182D02*
Y65365D01*
X80300Y78000D02*
X92935Y65365D01*
X123500Y108372D02*
Y112900D01*
X81800Y68100D02*
X87030Y62870D01*
X81500Y71500D02*
X89100Y63900D01*
X80800Y62200D02*
X83093Y59907D01*
Y51182D02*
Y59907D01*
X113657Y108372D02*
Y112900D01*
X80800Y74700D02*
X90967Y64533D01*
Y51182D02*
Y64533D01*
X81900Y65100D02*
X85061Y61939D01*
X87030Y51182D02*
Y62870D01*
X89100Y53718D02*
Y63900D01*
X85061Y51182D02*
Y61939D01*
X89071Y53690D02*
X89100Y53718D01*
X88998Y51182D02*
X89071Y51255D01*
Y53690D01*
X87030Y46965D02*
Y51182D01*
X92889Y51136D02*
X92935Y51182D01*
X90967Y93548D02*
Y97639D01*
X88998Y92526D02*
Y97639D01*
X81124Y92876D02*
Y97639D01*
X101394Y69494D02*
X101400Y69489D01*
X117598Y77559D02*
X130512D01*
X116891Y74409D02*
X130512D01*
X111969Y79331D02*
X116891Y74409D01*
X101400Y79331D02*
X111969D01*
X101400Y77363D02*
X109737D01*
X115840Y71260D02*
X130512D01*
X109737Y77363D02*
X115840Y71260D01*
X108106Y75394D02*
X115300Y68200D01*
X130422D01*
X101400Y75394D02*
X108106D01*
X114739Y64961D02*
X130512D01*
X101400Y73426D02*
X106274D01*
X114739Y64961D01*
X108580Y67520D02*
X114289Y61811D01*
X101400Y67520D02*
X108580D01*
X114289Y61811D02*
X130512D01*
X113539Y58661D02*
X130512D01*
X101400Y65552D02*
X106648D01*
X113539Y58661D01*
X90894Y51109D02*
X90967Y51182D01*
X139300Y52400D02*
X139319Y52381D01*
X147028D02*
X147047Y52362D01*
X139319Y52381D02*
X147028D01*
X139000Y55500D02*
X139006Y55506D01*
X147041D02*
X147047Y55512D01*
X139006Y55506D02*
X147041D01*
X139300Y58600D02*
X139331Y58631D01*
X147017D02*
X147047Y58661D01*
X139331Y58631D02*
X147017D01*
X139000Y61600D02*
X139105Y61705D01*
X146942D02*
X147047Y61811D01*
X139105Y61705D02*
X146942D01*
X138870Y71330D02*
X146977D01*
X147047Y71260D01*
X139155Y74355D02*
X146993D01*
X147047Y74410D01*
X57500Y133412D02*
X58091D01*
X57500Y114200D02*
Y122388D01*
Y133412D02*
X57600Y133512D01*
Y143000D01*
X82100Y42035D02*
X87030Y46965D01*
X82100Y36800D02*
Y42035D01*
X77187Y51182D02*
X77200Y51169D01*
X7000Y55300D02*
X7212Y55512D01*
X6899Y55401D02*
X7000Y55300D01*
X5905Y55401D02*
X6899D01*
X7212Y55512D02*
X10433D01*
X7185Y58661D02*
X10433D01*
X90894Y47975D02*
Y51109D01*
X92889Y47226D02*
Y51136D01*
X84856Y36800D02*
Y41937D01*
X87612Y41949D02*
X92889Y47226D01*
X87612Y36800D02*
Y41949D01*
X84856Y41937D02*
X90894Y47975D01*
X130422Y68200D02*
X130512Y68110D01*
X26969Y58661D02*
X30281D01*
X26969Y55512D02*
X30217D01*
X26969Y52362D02*
X30217D01*
X27157Y62000D02*
X30405D01*
X26969Y61811D02*
X27157Y62000D01*
X30217Y49213D02*
X44587Y63583D01*
X26969Y49213D02*
X30217D01*
X44587Y63583D02*
X54943D01*
X26969Y46063D02*
X30217D01*
X45768Y61615D01*
X54943D01*
D16*
X109874Y17300D02*
D03*
X104126D02*
D03*
X58174Y104000D02*
D03*
X52426D02*
D03*
X90574Y17100D02*
D03*
X84826D02*
D03*
D17*
X58800Y112900D02*
D03*
X51900D02*
D03*
X57600Y143000D02*
D03*
X64500D02*
D03*
X109700Y50800D02*
D03*
X102800D02*
D03*
X48500Y50500D02*
D03*
X55400D02*
D03*
X68500Y16900D02*
D03*
X75400D02*
D03*
D18*
X72400Y133400D02*
D03*
Y140300D02*
D03*
X82300Y133200D02*
D03*
Y140100D02*
D03*
X118600Y39600D02*
D03*
Y32700D02*
D03*
D35*
X30799Y99632D02*
X31468D01*
X27317Y103114D02*
X30799Y99632D01*
X27317Y103114D02*
Y105983D01*
X18562D02*
X27317D01*
X54358Y89174D02*
X54943D01*
X54298Y89233D02*
Y91013D01*
X52600Y92711D02*
X54298Y91013D01*
Y89233D02*
X54358Y89174D01*
X52600Y92711D02*
Y92900D01*
X18651Y109377D02*
X18973Y109700D01*
X18605Y109377D02*
X18651D01*
X36605Y118456D02*
X37786D01*
X17708D02*
X18889D01*
D36*
X23622Y90551D02*
D03*
Y39370D02*
D03*
X133858D02*
D03*
Y90551D02*
D03*
D37*
X7874Y7874D02*
D03*
D38*
X6200Y124852D02*
D03*
X49294D02*
D03*
D39*
X5700Y140600D02*
D03*
X49794Y140600D02*
D03*
D40*
X112134Y103871D02*
D03*
X105500Y56500D02*
D03*
X94700Y69500D02*
D03*
X129289Y19400D02*
D03*
X62300Y82600D02*
D03*
X73112Y83300D02*
D03*
X121200Y88400D02*
D03*
X45100Y87100D02*
D03*
X59148Y86406D02*
D03*
X19675Y53400D02*
D03*
X20600Y68100D02*
D03*
Y71200D02*
D03*
Y64900D02*
D03*
X19675Y45860D02*
D03*
X89500Y71800D02*
D03*
X86000Y75300D02*
D03*
X83400Y77900D02*
D03*
X45500Y112200D02*
D03*
X138900Y81500D02*
D03*
X140700Y87900D02*
D03*
X124700Y46400D02*
D03*
X123300Y51500D02*
D03*
X67300Y90700D02*
D03*
X72600D02*
D03*
X86900Y93000D02*
D03*
X47700Y96800D02*
D03*
X41200Y41050D02*
D03*
X47300D02*
D03*
Y37100D02*
D03*
X41200D02*
D03*
X122700Y19400D02*
D03*
X129289Y14300D02*
D03*
X122700D02*
D03*
X30200Y18259D02*
D03*
X36174D02*
D03*
Y13200D02*
D03*
X30200D02*
D03*
X102100Y45500D02*
D03*
X83136Y46231D02*
D03*
X58300Y99800D02*
D03*
X59900Y50300D02*
D03*
X67500Y45600D02*
D03*
X110800Y95400D02*
D03*
X123400Y83900D02*
D03*
X99800Y101900D02*
D03*
X96400Y97400D02*
D03*
X63300Y106000D02*
D03*
X89044Y116628D02*
D03*
X98700Y43600D02*
D03*
X63900Y39400D02*
D03*
X111854Y33693D02*
D03*
X141300Y95900D02*
D03*
X124134Y99571D02*
D03*
X138500Y77600D02*
D03*
X126900Y90900D02*
D03*
X52600Y92900D02*
D03*
X19675Y49630D02*
D03*
X18562Y105983D02*
D03*
X15200Y106200D02*
D03*
X15300Y109900D02*
D03*
X39500Y107500D02*
D03*
X28600Y110600D02*
D03*
X34900Y102700D02*
D03*
X20600Y61900D02*
D03*
Y77600D02*
D03*
Y80600D02*
D03*
Y74400D02*
D03*
Y83600D02*
D03*
X26731Y114700D02*
D03*
X30731Y114500D02*
D03*
X42148Y13200D02*
D03*
X87700Y89600D02*
D03*
X83600Y90400D02*
D03*
X72900Y59800D02*
D03*
X47300Y45000D02*
D03*
X111840Y39200D02*
D03*
X138558Y43279D02*
D03*
X94900Y72300D02*
D03*
X80400Y85500D02*
D03*
X82000Y88000D02*
D03*
X116111Y19400D02*
D03*
Y14300D02*
D03*
X41200Y45000D02*
D03*
X98196Y18237D02*
D03*
X98200Y23600D02*
D03*
X63100Y109800D02*
D03*
X48121Y13200D02*
D03*
Y18259D02*
D03*
X42148D02*
D03*
X75800Y77800D02*
D03*
Y74600D02*
D03*
Y71500D02*
D03*
Y68100D02*
D03*
X89900Y91300D02*
D03*
X92430Y91900D02*
D03*
X90300Y30700D02*
D03*
X72900Y56700D02*
D03*
X59700Y59800D02*
D03*
X75800Y62200D02*
D03*
Y65100D02*
D03*
X138500Y71400D02*
D03*
Y61600D02*
D03*
Y55500D02*
D03*
Y74300D02*
D03*
Y58600D02*
D03*
Y52400D02*
D03*
D41*
X54943Y89174D02*
D03*
Y87205D02*
D03*
Y85237D02*
D03*
Y83268D02*
D03*
X54943Y81300D02*
D03*
Y79331D02*
D03*
Y77363D02*
D03*
Y75394D02*
D03*
Y73426D02*
D03*
Y71457D02*
D03*
Y69489D02*
D03*
Y67520D02*
D03*
X54943Y65552D02*
D03*
Y63583D02*
D03*
Y61615D02*
D03*
Y59646D02*
D03*
X101400D02*
D03*
Y61615D02*
D03*
Y63583D02*
D03*
Y65552D02*
D03*
X101400Y67520D02*
D03*
Y69489D02*
D03*
Y71457D02*
D03*
Y73426D02*
D03*
Y75394D02*
D03*
Y77363D02*
D03*
Y79331D02*
D03*
Y81300D02*
D03*
X101400Y83268D02*
D03*
Y85237D02*
D03*
Y87205D02*
D03*
Y89174D02*
D03*
D42*
X63408Y51182D02*
D03*
X65376D02*
D03*
X67345D02*
D03*
X69313D02*
D03*
X71282D02*
D03*
X73250D02*
D03*
X75219D02*
D03*
X77187D02*
D03*
X79156D02*
D03*
X81124D02*
D03*
X83093D02*
D03*
X85061D02*
D03*
X87030D02*
D03*
X88998D02*
D03*
X90967Y51182D02*
D03*
X92935D02*
D03*
Y97639D02*
D03*
X90967D02*
D03*
X88998Y97639D02*
D03*
X87030D02*
D03*
X85061D02*
D03*
X83093D02*
D03*
X81124D02*
D03*
X79156D02*
D03*
X77187D02*
D03*
X75219D02*
D03*
X73250D02*
D03*
X71282D02*
D03*
X69313D02*
D03*
X67345D02*
D03*
X65376D02*
D03*
X63408D02*
D03*
D43*
X90388Y36800D02*
D03*
X82121D02*
D03*
X98656D02*
D03*
X106924D02*
D03*
X79365D02*
D03*
X76609D02*
D03*
X87632D02*
D03*
X84876D02*
D03*
X95900D02*
D03*
X93144D02*
D03*
X101412D02*
D03*
X104168D02*
D03*
D44*
X10433Y42913D02*
D03*
Y46063D02*
D03*
Y49213D02*
D03*
Y52362D02*
D03*
Y55512D02*
D03*
Y58661D02*
D03*
Y61811D02*
D03*
Y64961D02*
D03*
Y68110D02*
D03*
Y71260D02*
D03*
Y74409D02*
D03*
Y77559D02*
D03*
Y80709D02*
D03*
Y83858D02*
D03*
Y87008D02*
D03*
X26969Y42913D02*
D03*
Y46063D02*
D03*
Y49213D02*
D03*
Y52362D02*
D03*
Y55512D02*
D03*
Y58661D02*
D03*
Y61811D02*
D03*
Y64961D02*
D03*
Y68110D02*
D03*
Y71260D02*
D03*
Y74409D02*
D03*
Y77559D02*
D03*
Y80709D02*
D03*
Y83858D02*
D03*
Y87008D02*
D03*
X147047D02*
D03*
Y83858D02*
D03*
Y80709D02*
D03*
Y77559D02*
D03*
Y74410D02*
D03*
Y71260D02*
D03*
X147047Y68110D02*
D03*
X147047Y64961D02*
D03*
Y61811D02*
D03*
Y58661D02*
D03*
Y55512D02*
D03*
Y52362D02*
D03*
Y49213D02*
D03*
Y46063D02*
D03*
Y42913D02*
D03*
X130512Y87008D02*
D03*
Y83858D02*
D03*
Y80709D02*
D03*
Y77559D02*
D03*
Y74409D02*
D03*
Y71260D02*
D03*
Y68110D02*
D03*
Y64961D02*
D03*
Y61811D02*
D03*
Y58661D02*
D03*
Y55512D02*
D03*
Y52362D02*
D03*
Y49213D02*
D03*
Y46063D02*
D03*
Y42913D02*
D03*
D45*
X4800Y109700D02*
D03*
X18973D02*
D03*
X89887Y7400D02*
D03*
X75713D02*
D03*
D46*
X71688Y124000D02*
D03*
X82712D02*
D03*
D47*
X39513Y107373D02*
D03*
X43577Y103308D02*
D03*
X31168Y99132D02*
D03*
X35232Y95068D02*
D03*
X39432Y99190D02*
D03*
X35368Y103255D02*
D03*
D48*
X133343Y112900D02*
D03*
X123500D02*
D03*
X113657D02*
D03*
X103815D02*
D03*
D49*
X145457Y140975D02*
D03*
X91701D02*
D03*
D50*
X57500Y133412D02*
D03*
Y122388D02*
D03*
D51*
X14558Y118456D02*
D03*
X15739D02*
D03*
X17708D02*
D03*
X18889D02*
D03*
X20857D02*
D03*
X22826D02*
D03*
X24794D02*
D03*
X26763D02*
D03*
X28731D02*
D03*
X30700D02*
D03*
X32668D02*
D03*
X34637D02*
D03*
X36605D02*
D03*
X37786D02*
D03*
X39755D02*
D03*
X40936D02*
D03*
D52*
X95400Y105300D02*
D03*
X90521Y110179D02*
D03*
M02*
