G04*
G04 #@! TF.GenerationSoftware,Altium Limited,Altium Designer,21.5.1 (32)*
G04*
G04 Layer_Color=16711935*
%FSLAX25Y25*%
%MOIN*%
G70*
G04*
G04 #@! TF.SameCoordinates,038A9873-0345-4B3A-900E-8F7FEBA65CAA*
G04*
G04*
G04 #@! TF.FilePolarity,Negative*
G04*
G01*
G75*
%ADD24R,0.03950X0.04147*%
%ADD25R,0.04600X0.04300*%
%ADD26R,0.04300X0.04600*%
%ADD31C,0.03556*%
%ADD32C,0.09461*%
%ADD33O,0.04737X0.07887*%
%ADD34O,0.05524X0.07493*%
%ADD53O,0.06312X0.01981*%
%ADD54O,0.01981X0.06312*%
%ADD55O,0.02375X0.08674*%
%ADD56O,0.08674X0.02178*%
%ADD57R,0.04737X0.03753*%
%ADD58R,0.05524X0.06706*%
G04:AMPARAMS|DCode=59|XSize=39.5mil|YSize=41.47mil|CornerRadius=0mil|HoleSize=0mil|Usage=FLASHONLY|Rotation=135.000|XOffset=0mil|YOffset=0mil|HoleType=Round|Shape=Rectangle|*
%AMROTATEDRECTD59*
4,1,4,0.02862,0.00070,-0.00070,-0.02862,-0.02862,-0.00070,0.00070,0.02862,0.02862,0.00070,0.0*
%
%ADD59ROTATEDRECTD59*%

%ADD60R,0.05524X0.14580*%
%ADD61R,0.08674X0.14580*%
%ADD62R,0.06706X0.05524*%
%ADD63R,0.01981X0.05400*%
G04:AMPARAMS|DCode=64|XSize=46mil|YSize=43mil|CornerRadius=0mil|HoleSize=0mil|Usage=FLASHONLY|Rotation=315.000|XOffset=0mil|YOffset=0mil|HoleType=Round|Shape=Rectangle|*
%AMROTATEDRECTD64*
4,1,4,-0.03147,0.00106,-0.00106,0.03147,0.03147,-0.00106,0.00106,-0.03147,-0.03147,0.00106,0.0*
%
%ADD64ROTATEDRECTD64*%

D24*
X109874Y17300D02*
D03*
X104126D02*
D03*
X58174Y104000D02*
D03*
X52426D02*
D03*
X90574Y17100D02*
D03*
X84826D02*
D03*
D25*
X58800Y112900D02*
D03*
X51900D02*
D03*
X57600Y143000D02*
D03*
X64500D02*
D03*
X109700Y50800D02*
D03*
X102800D02*
D03*
X48500Y50500D02*
D03*
X55400D02*
D03*
X68500Y16900D02*
D03*
X75400D02*
D03*
D26*
X72400Y133400D02*
D03*
Y140300D02*
D03*
X82300Y133200D02*
D03*
Y140100D02*
D03*
X118600Y39600D02*
D03*
Y32700D02*
D03*
D31*
X23622Y90551D02*
D03*
Y39370D02*
D03*
X133858D02*
D03*
Y90551D02*
D03*
D32*
X7874Y7874D02*
D03*
D33*
X6200Y124852D02*
D03*
X49294D02*
D03*
D34*
X5700Y140600D02*
D03*
X49794Y140600D02*
D03*
D53*
X54943Y89174D02*
D03*
Y87205D02*
D03*
Y85237D02*
D03*
Y83268D02*
D03*
X54943Y81300D02*
D03*
Y79331D02*
D03*
Y77363D02*
D03*
Y75394D02*
D03*
Y73426D02*
D03*
Y71457D02*
D03*
Y69489D02*
D03*
Y67520D02*
D03*
X54943Y65552D02*
D03*
Y63583D02*
D03*
Y61615D02*
D03*
Y59646D02*
D03*
X101400D02*
D03*
Y61615D02*
D03*
Y63583D02*
D03*
Y65552D02*
D03*
X101400Y67520D02*
D03*
Y69489D02*
D03*
Y71457D02*
D03*
Y73426D02*
D03*
Y75394D02*
D03*
Y77363D02*
D03*
Y79331D02*
D03*
Y81300D02*
D03*
X101400Y83268D02*
D03*
Y85237D02*
D03*
Y87205D02*
D03*
Y89174D02*
D03*
D54*
X63408Y51182D02*
D03*
X65376D02*
D03*
X67345D02*
D03*
X69313D02*
D03*
X71282D02*
D03*
X73250D02*
D03*
X75219D02*
D03*
X77187D02*
D03*
X79156D02*
D03*
X81124D02*
D03*
X83093D02*
D03*
X85061D02*
D03*
X87030D02*
D03*
X88998D02*
D03*
X90967Y51182D02*
D03*
X92935D02*
D03*
Y97639D02*
D03*
X90967D02*
D03*
X88998Y97639D02*
D03*
X87030D02*
D03*
X85061D02*
D03*
X83093D02*
D03*
X81124D02*
D03*
X79156D02*
D03*
X77187D02*
D03*
X75219D02*
D03*
X73250D02*
D03*
X71282D02*
D03*
X69313D02*
D03*
X67345D02*
D03*
X65376D02*
D03*
X63408D02*
D03*
D55*
X90388Y36800D02*
D03*
X82121D02*
D03*
X98656D02*
D03*
X106924D02*
D03*
X79365D02*
D03*
X76609D02*
D03*
X87632D02*
D03*
X84876D02*
D03*
X95900D02*
D03*
X93144D02*
D03*
X101412D02*
D03*
X104168D02*
D03*
D56*
X10433Y42913D02*
D03*
Y46063D02*
D03*
Y49213D02*
D03*
Y52362D02*
D03*
Y55512D02*
D03*
Y58661D02*
D03*
Y61811D02*
D03*
Y64961D02*
D03*
Y68110D02*
D03*
Y71260D02*
D03*
Y74409D02*
D03*
Y77559D02*
D03*
Y80709D02*
D03*
Y83858D02*
D03*
Y87008D02*
D03*
X26969Y42913D02*
D03*
Y46063D02*
D03*
Y49213D02*
D03*
Y52362D02*
D03*
Y55512D02*
D03*
Y58661D02*
D03*
Y61811D02*
D03*
Y64961D02*
D03*
Y68110D02*
D03*
Y71260D02*
D03*
Y74409D02*
D03*
Y77559D02*
D03*
Y80709D02*
D03*
Y83858D02*
D03*
Y87008D02*
D03*
X147047D02*
D03*
Y83858D02*
D03*
Y80709D02*
D03*
Y77559D02*
D03*
Y74410D02*
D03*
Y71260D02*
D03*
X147047Y68110D02*
D03*
X147047Y64961D02*
D03*
Y61811D02*
D03*
Y58661D02*
D03*
Y55512D02*
D03*
Y52362D02*
D03*
Y49213D02*
D03*
Y46063D02*
D03*
Y42913D02*
D03*
X130512Y87008D02*
D03*
Y83858D02*
D03*
Y80709D02*
D03*
Y77559D02*
D03*
Y74409D02*
D03*
Y71260D02*
D03*
Y68110D02*
D03*
Y64961D02*
D03*
Y61811D02*
D03*
Y58661D02*
D03*
Y55512D02*
D03*
Y52362D02*
D03*
Y49213D02*
D03*
Y46063D02*
D03*
Y42913D02*
D03*
D57*
X4800Y109700D02*
D03*
X18973D02*
D03*
X89887Y7400D02*
D03*
X75713D02*
D03*
D58*
X71688Y124000D02*
D03*
X82712D02*
D03*
D59*
X39513Y107373D02*
D03*
X43577Y103308D02*
D03*
X31168Y99132D02*
D03*
X35232Y95068D02*
D03*
X39432Y99190D02*
D03*
X35368Y103255D02*
D03*
D60*
X133343Y112900D02*
D03*
X123500D02*
D03*
X113657D02*
D03*
X103815D02*
D03*
D61*
X145457Y140975D02*
D03*
X91701D02*
D03*
D62*
X57500Y133412D02*
D03*
Y122388D02*
D03*
D63*
X14558Y118456D02*
D03*
X15739D02*
D03*
X17708D02*
D03*
X18889D02*
D03*
X20857D02*
D03*
X22826D02*
D03*
X24794D02*
D03*
X26763D02*
D03*
X28731D02*
D03*
X30700D02*
D03*
X32668D02*
D03*
X34637D02*
D03*
X36605D02*
D03*
X37786D02*
D03*
X39755D02*
D03*
X40936D02*
D03*
D64*
X95400Y105300D02*
D03*
X90521Y110179D02*
D03*
M02*
