G04*
G04 #@! TF.GenerationSoftware,Altium Limited,Altium Designer,21.5.1 (32)*
G04*
G04 Layer_Color=255*
%FSLAX25Y25*%
%MOIN*%
G70*
G04*
G04 #@! TF.SameCoordinates,038A9873-0345-4B3A-900E-8F7FEBA65CAA*
G04*
G04*
G04 #@! TF.FilePolarity,Positive*
G04*
G01*
G75*
%ADD15R,0.05906X0.07874*%
%ADD16R,0.03150X0.03347*%
%ADD17R,0.03800X0.03500*%
%ADD18R,0.03500X0.03800*%
%ADD19R,0.01772X0.03937*%
%ADD20R,0.03347X0.03150*%
%ADD21R,0.09055X0.06299*%
%ADD22R,0.02165X0.03937*%
%ADD36C,0.02756*%
%ADD37C,0.08661*%
%ADD38O,0.03937X0.07087*%
%ADD39O,0.04724X0.06693*%
D15*
X147100Y43600D02*
D03*
X147178Y12369D02*
D03*
D16*
X12374Y50952D02*
D03*
X6625D02*
D03*
X141426Y68300D02*
D03*
X147174D02*
D03*
X6601Y45960D02*
D03*
X12349D02*
D03*
D17*
X141500Y87700D02*
D03*
X148400D02*
D03*
X141500Y96100D02*
D03*
X148400D02*
D03*
X9000Y102000D02*
D03*
X15900D02*
D03*
D18*
X151100Y121900D02*
D03*
Y128800D02*
D03*
D19*
X148640Y114900D02*
D03*
X144900Y114900D02*
D03*
X141160D02*
D03*
X141160Y103900D02*
D03*
X144900D02*
D03*
X148640D02*
D03*
D20*
X132100Y96100D02*
D03*
Y101848D02*
D03*
D21*
X7700Y73702D02*
D03*
Y61498D02*
D03*
D22*
X15940Y93600D02*
D03*
X12200D02*
D03*
X8460D02*
D03*
Y83364D02*
D03*
X15940D02*
D03*
D36*
X23622Y90551D02*
D03*
Y39370D02*
D03*
X133858D02*
D03*
Y90551D02*
D03*
D37*
X7874Y7874D02*
D03*
D38*
X6200Y124852D02*
D03*
X49294D02*
D03*
D39*
X5700Y140600D02*
D03*
X49794Y140600D02*
D03*
M02*
