G04*
G04 #@! TF.GenerationSoftware,Altium Limited,Altium Designer,21.5.1 (32)*
G04*
G04 Layer_Color=8388736*
%FSLAX25Y25*%
%MOIN*%
G70*
G04*
G04 #@! TF.SameCoordinates,038A9873-0345-4B3A-900E-8F7FEBA65CAA*
G04*
G04*
G04 #@! TF.FilePolarity,Negative*
G04*
G01*
G75*
%ADD23R,0.06706X0.08674*%
%ADD24R,0.03950X0.04147*%
%ADD25R,0.04600X0.04300*%
%ADD26R,0.04300X0.04600*%
%ADD27R,0.02572X0.04737*%
%ADD28R,0.04147X0.03950*%
%ADD29R,0.09855X0.07099*%
%ADD30R,0.02965X0.04737*%
%ADD31C,0.03556*%
%ADD32C,0.09461*%
%ADD33O,0.04737X0.07887*%
%ADD34O,0.05524X0.07493*%
D23*
X147100Y43600D02*
D03*
X147178Y12369D02*
D03*
D24*
X12374Y50952D02*
D03*
X6625D02*
D03*
X141426Y68300D02*
D03*
X147174D02*
D03*
X6601Y45960D02*
D03*
X12349D02*
D03*
D25*
X141500Y87700D02*
D03*
X148400D02*
D03*
X141500Y96100D02*
D03*
X148400D02*
D03*
X9000Y102000D02*
D03*
X15900D02*
D03*
D26*
X151100Y121900D02*
D03*
Y128800D02*
D03*
D27*
X148640Y114900D02*
D03*
X144900Y114900D02*
D03*
X141160D02*
D03*
X141160Y103900D02*
D03*
X144900D02*
D03*
X148640D02*
D03*
D28*
X132100Y96100D02*
D03*
Y101848D02*
D03*
D29*
X7700Y73702D02*
D03*
Y61498D02*
D03*
D30*
X15940Y93600D02*
D03*
X12200D02*
D03*
X8460D02*
D03*
Y83364D02*
D03*
X15940D02*
D03*
D31*
X23622Y90551D02*
D03*
Y39370D02*
D03*
X133858D02*
D03*
Y90551D02*
D03*
D32*
X7874Y7874D02*
D03*
D33*
X6200Y124852D02*
D03*
X49294D02*
D03*
D34*
X5700Y140600D02*
D03*
X49794Y140600D02*
D03*
M02*
