G04*
G04 #@! TF.GenerationSoftware,Altium Limited,Altium Designer,21.5.1 (32)*
G04*
G04 Layer_Color=8388736*
%FSLAX25Y25*%
%MOIN*%
G70*
G04*
G04 #@! TF.SameCoordinates,7B5D3A8B-CDFD-4B31-A324-F985B6E4613D*
G04*
G04*
G04 #@! TF.FilePolarity,Negative*
G04*
G01*
G75*
%ADD24R,0.04600X0.04300*%
%ADD25R,0.03950X0.04147*%
%ADD26R,0.04300X0.04600*%
%ADD27R,0.04147X0.03950*%
%ADD28R,0.04737X0.06706*%
%ADD29R,0.06706X0.08674*%
%ADD30R,0.02572X0.04737*%
%ADD31R,0.09855X0.07099*%
%ADD32R,0.02965X0.04737*%
%ADD33O,0.03950X0.07887*%
%ADD34C,0.03556*%
%ADD35C,0.03556*%
%ADD36C,0.09461*%
D24*
X15900Y102000D02*
D03*
X9000D02*
D03*
X148400Y87700D02*
D03*
X141500D02*
D03*
X148400Y96100D02*
D03*
X141500D02*
D03*
D25*
X22874Y15100D02*
D03*
X17126D02*
D03*
X147174Y68300D02*
D03*
X141426D02*
D03*
D26*
X151100Y128800D02*
D03*
Y121900D02*
D03*
D27*
X132100Y101848D02*
D03*
Y96100D02*
D03*
D28*
X6600Y44901D02*
D03*
Y31101D02*
D03*
X12300Y31101D02*
D03*
Y44901D02*
D03*
D29*
X147100Y43600D02*
D03*
X147178Y12369D02*
D03*
D30*
X148640Y114900D02*
D03*
X144900Y114900D02*
D03*
X141160D02*
D03*
X141160Y103900D02*
D03*
X144900D02*
D03*
X148640D02*
D03*
D31*
X7700Y73702D02*
D03*
Y61498D02*
D03*
D32*
X15940Y93600D02*
D03*
X12200D02*
D03*
X8460D02*
D03*
Y83364D02*
D03*
X15940D02*
D03*
D33*
X10714Y142391D02*
D03*
X44769Y142391D02*
D03*
X10714Y126013D02*
D03*
X44769D02*
D03*
D34*
X16344Y128100D02*
D03*
X39100D02*
D03*
D35*
X23622Y90551D02*
D03*
Y39370D02*
D03*
X133858D02*
D03*
Y90551D02*
D03*
D36*
X7874Y7874D02*
D03*
M02*
