G04*
G04 #@! TF.GenerationSoftware,Altium Limited,Altium Designer,21.5.1 (32)*
G04*
G04 Layer_Color=32896*
%FSLAX25Y25*%
%MOIN*%
G70*
G04*
G04 #@! TF.SameCoordinates,038A9873-0345-4B3A-900E-8F7FEBA65CAA*
G04*
G04*
G04 #@! TF.FilePolarity,Positive*
G04*
G01*
G75*
%ADD10C,0.01000*%
%ADD11C,0.00984*%
%ADD12C,0.00800*%
%ADD13C,0.00787*%
%ADD14C,0.00500*%
%ADD65C,0.01575*%
%ADD66C,0.00600*%
%ADD67R,0.00787X0.03937*%
G36*
X80831Y9369D02*
Y5432D01*
X84375Y7400D01*
X80831Y9369D01*
D02*
G37*
G36*
X9918Y111669D02*
Y107731D01*
X13461Y109700D01*
X9918Y111669D01*
D02*
G37*
G36*
X61833Y96950D02*
X59077Y95572D01*
Y98328D01*
X61833Y96950D01*
D02*
G37*
G36*
X107679Y29913D02*
X107391D01*
X107324Y29908D01*
X107269Y29902D01*
X107224Y29891D01*
X107185Y29874D01*
X107152Y29863D01*
X107130Y29852D01*
X107119Y29847D01*
X107113Y29841D01*
X107080Y29808D01*
X107058Y29769D01*
X107041Y29730D01*
X107030Y29691D01*
X107024Y29658D01*
X107019Y29630D01*
Y29608D01*
Y29602D01*
Y26061D01*
X106825D01*
X106786Y26134D01*
X106741Y26195D01*
X106702Y26245D01*
X106658Y26283D01*
X106625Y26311D01*
X106597Y26333D01*
X106575Y26344D01*
X106569Y26350D01*
X106508Y26378D01*
X106442Y26395D01*
X106369Y26411D01*
X106303Y26417D01*
X106242Y26422D01*
X106197Y26428D01*
X105887D01*
Y26683D01*
X106358D01*
X106414Y26689D01*
X106458Y26705D01*
X106480Y26722D01*
X106486Y26728D01*
X106514Y26761D01*
X106525Y26794D01*
X106530Y26822D01*
Y26827D01*
Y26833D01*
Y29602D01*
X106525Y29658D01*
X106519Y29708D01*
X106503Y29747D01*
X106486Y29780D01*
X106469Y29808D01*
X106458Y29824D01*
X106447Y29836D01*
X106442Y29841D01*
X106403Y29863D01*
X106364Y29880D01*
X106264Y29902D01*
X106225Y29908D01*
X106186Y29913D01*
X105887D01*
Y30169D01*
X107679D01*
Y29913D01*
D02*
G37*
D10*
X113427Y37816D02*
G03*
X110474Y40769I-2953J0D01*
G01*
X71970Y40769D02*
G03*
X69017Y37816I0J-2953D01*
G01*
X61000Y110000D02*
G03*
X60948Y115856I-3545J2897D01*
G01*
X49800Y115800D02*
G03*
X49852Y109944I3545J-2897D01*
G01*
X55400Y145900D02*
G03*
X55452Y140044I3545J-2897D01*
G01*
X66600Y140100D02*
G03*
X66548Y145956I-3545J2897D01*
G01*
X69500Y131200D02*
G03*
X75356Y131252I2897J3545D01*
G01*
X75300Y142400D02*
G03*
X69444Y142348I-2897J-3545D01*
G01*
X79400Y131000D02*
G03*
X85256Y131052I2897J3545D01*
G01*
X85200Y142200D02*
G03*
X79344Y142148I-2897J-3545D01*
G01*
X94905Y101694D02*
G03*
X99009Y105871I-458J4555D01*
G01*
X91087Y113715D02*
G03*
X86983Y109537I458J-4555D01*
G01*
X111900Y47900D02*
G03*
X111848Y53756I-3545J2897D01*
G01*
X100700Y53700D02*
G03*
X100752Y47844I3545J-2897D01*
G01*
X121500Y41800D02*
G03*
X115644Y41748I-2897J-3545D01*
G01*
X115700Y30600D02*
G03*
X121556Y30652I2897J3545D01*
G01*
X46300Y53400D02*
G03*
X46352Y47544I3545J-2897D01*
G01*
X57500Y47600D02*
G03*
X57448Y53456I-3545J2897D01*
G01*
X66300Y19800D02*
G03*
X66352Y13944I3545J-2897D01*
G01*
X77500Y14000D02*
G03*
X77448Y19856I-3545J2897D01*
G01*
X96676Y55906D02*
Y92914D01*
X59668Y55906D02*
X96676D01*
X62424Y92914D02*
X96676D01*
X59668Y90158D02*
X62424Y92914D01*
X59668Y55906D02*
Y90158D01*
X49900Y115900D02*
X53600Y115900D01*
X49900Y109900D02*
X53600Y109900D01*
X57100D02*
X60900Y109900D01*
X57100Y115900D02*
X60800Y115900D01*
X62800Y140000D02*
X66500D01*
X62800Y146000D02*
X66500D01*
X55500D02*
X59300Y146000D01*
X55600Y140000D02*
X59300Y140000D01*
X75400Y138600D02*
X75400Y142300D01*
X69400Y138600D02*
X69400Y142300D01*
X69400Y131300D02*
Y135100D01*
X75400Y131400D02*
X75400Y135100D01*
X85300Y142100D02*
X85300Y138400D01*
X79300Y142100D02*
X79300Y138400D01*
X79300Y134900D02*
X79300Y131100D01*
X85300Y131200D02*
X85300Y134900D01*
X91228Y113715D02*
X93844Y111098D01*
X86985Y109472D02*
X89602Y106856D01*
X92077Y104381D02*
X94764Y101694D01*
X96319Y108623D02*
X98936Y106007D01*
X100800Y53800D02*
X104500Y53800D01*
X100800Y47800D02*
X104500Y47800D01*
X108000Y47800D02*
X111800D01*
X108000Y53800D02*
X111700D01*
X115600Y34400D02*
X115600Y30700D01*
X121600D02*
X121600Y34400D01*
X121600Y37900D02*
Y41700D01*
X115600Y37900D02*
Y41600D01*
X53700Y47500D02*
X57400D01*
X53700Y53500D02*
X57400D01*
X46400D02*
X50200D01*
X46500Y47500D02*
X50200D01*
X73700Y13900D02*
X77400Y13900D01*
X73700Y19900D02*
X77400Y19900D01*
X66400D02*
X70200D01*
X66500Y13900D02*
X70200D01*
D11*
X27461Y89862D02*
G03*
X27461Y89862I-492J0D01*
G01*
X131004Y40059D02*
G03*
X131004Y40059I-492J0D01*
G01*
D12*
X122247Y12894D02*
Y22894D01*
X121301Y23839D02*
X122247Y22894D01*
X113427Y23839D02*
X121301Y23839D01*
X113427Y23839D02*
Y38800D01*
X69017Y21700D02*
Y38800D01*
D13*
X15945Y37205D02*
X21457D01*
X15945Y92716D02*
X21457D01*
X15945Y37205D02*
Y92716D01*
X21457Y37205D02*
Y92716D01*
X136024D02*
X141535Y92716D01*
X136024Y37205D02*
X141535D01*
Y92716D01*
X136024Y37205D02*
Y92716D01*
X108575Y19859D02*
X112315Y19859D01*
X101685D02*
X105425Y19859D01*
X108575Y14741D02*
X112315Y14741D01*
X101685D02*
X105425Y14741D01*
X101685Y14741D02*
Y19859D01*
X112315Y14741D02*
Y19859D01*
X35977Y107289D02*
X38622Y104644D01*
X40849Y102417D02*
X43494Y99773D01*
X39596Y110908D02*
X42241Y108263D01*
X44468Y106036D02*
X47113Y103392D01*
X43494Y99773D02*
X47113Y103392D01*
X35977Y107289D02*
X39596Y110908D01*
X27632Y99049D02*
X30277Y96404D01*
X32504Y94177D02*
X35149Y91532D01*
X31251Y102668D02*
X33896Y100023D01*
X36123Y97796D02*
X38768Y95151D01*
X35149Y91532D02*
X38768Y95151D01*
X27632Y99049D02*
X31251Y102668D01*
X40323Y101919D02*
X42968Y99274D01*
X35452Y106790D02*
X38096Y104146D01*
X36704Y98300D02*
X39349Y95655D01*
X31833Y103172D02*
X34477Y100527D01*
X31833Y103172D02*
X35452Y106790D01*
X39349Y95655D02*
X42968Y99274D01*
X93579Y148510D02*
X143579D01*
X93579Y116510D02*
X143579D01*
X88579Y126463D02*
X93579Y126463D01*
X88579Y126463D02*
Y133510D01*
X143579Y126463D02*
X148579Y126463D01*
Y133510D01*
X93579Y123510D02*
X143579D01*
X107358Y130006D02*
Y148510D01*
X105358Y130006D02*
X107358D01*
X102358Y135006D02*
X105358Y130006D01*
X102358Y135006D02*
Y148510D01*
X134799Y135006D02*
Y148510D01*
X131799Y130006D02*
X134799Y135006D01*
X129799Y130006D02*
X131799D01*
X129799D02*
Y148510D01*
X93579Y116510D02*
Y126463D01*
X143579Y116510D02*
Y126463D01*
X49985Y101441D02*
Y106559D01*
X60615Y101441D02*
Y106559D01*
X56875Y106559D02*
X60615Y106559D01*
X49985D02*
X53725Y106559D01*
X56875Y101441D02*
X60615Y101441D01*
X49985D02*
X53725Y101441D01*
X82385Y14541D02*
Y19659D01*
X93015Y14541D02*
Y19659D01*
X89275Y19659D02*
X93015Y19659D01*
X82385D02*
X86125Y19659D01*
X89275Y14541D02*
X93015Y14541D01*
X82385D02*
X86125Y14541D01*
D14*
X55837Y111430D02*
Y114383D01*
X54853Y111430D02*
Y114383D01*
X60563Y141517D02*
Y144470D01*
X61547Y141517D02*
Y144470D01*
X70930Y136363D02*
X73883Y136363D01*
X70930Y137347D02*
X73883Y137347D01*
X80830Y136163D02*
X83783D01*
X80830Y137147D02*
X83783D01*
X92266Y106356D02*
X94354Y108444D01*
X91570Y107052D02*
X93658Y109140D01*
X106737Y49330D02*
Y52283D01*
X105753Y49330D02*
Y52283D01*
X117117Y36637D02*
X120070D01*
X117117Y35653D02*
X120070D01*
X51463Y49017D02*
Y51970D01*
X52447Y49017D02*
Y51970D01*
X71463Y15417D02*
Y18370D01*
X72447Y15417D02*
Y18370D01*
D65*
X63998Y88977D02*
G03*
X63998Y88977I-394J0D01*
G01*
D66*
X75000Y122000D02*
Y126000D01*
X79400Y122000D02*
Y126000D01*
X76200D02*
X78200D01*
X76200Y122000D02*
Y126000D01*
Y122000D02*
X78200D01*
Y126000D01*
X55500Y128900D02*
X59500D01*
Y126900D02*
Y128900D01*
X55500Y126900D02*
X59500D01*
X55500D02*
Y128900D01*
Y130100D02*
X59500D01*
X55500Y125700D02*
X59500D01*
D67*
X13855Y109701D02*
D03*
X84770Y7400D02*
D03*
M02*
