G04*
G04 #@! TF.GenerationSoftware,Altium Limited,Altium Designer,21.5.1 (32)*
G04*
G04 Layer_Color=65535*
%FSLAX25Y25*%
%MOIN*%
G70*
G04*
G04 #@! TF.SameCoordinates,038A9873-0345-4B3A-900E-8F7FEBA65CAA*
G04*
G04*
G04 #@! TF.FilePolarity,Positive*
G04*
G01*
G75*
%ADD10C,0.01000*%
%ADD11C,0.00984*%
%ADD12C,0.00800*%
%ADD13C,0.00787*%
%ADD14C,0.00500*%
G36*
X8318Y50952D02*
X10287Y49771D01*
Y52133D01*
X8318Y50952D01*
D02*
G37*
D10*
X139352Y90656D02*
G03*
X139300Y84800I3492J-2959D01*
G01*
X150448Y84744D02*
G03*
X150500Y90600I-3492J2959D01*
G01*
X148144Y119752D02*
G03*
X154000Y119700I2959J3492D01*
G01*
X154056Y130848D02*
G03*
X148200Y130900I-2959J-3492D01*
G01*
X139352Y99056D02*
G03*
X139300Y93200I3492J-2959D01*
G01*
X150448Y93144D02*
G03*
X150500Y99000I-3492J2959D01*
G01*
X6952Y104956D02*
G03*
X6900Y99100I3492J-2959D01*
G01*
X18048Y99044D02*
G03*
X18100Y104900I-3492J2959D01*
G01*
X151700Y40259D02*
X154580D01*
X151700Y15456D02*
X154580D01*
X139620Y40259D02*
X142900D01*
X139620Y15456D02*
X142900D01*
X154580D02*
Y40259D01*
X139620Y15456D02*
Y40259D01*
X142100Y35100D02*
X145000D01*
X142100Y21100D02*
Y35100D01*
Y21100D02*
X145000D01*
X151100Y25100D02*
Y31000D01*
X146500Y28100D02*
X149100D01*
X142100D02*
X144700D01*
X146700Y90700D02*
X150400Y90700D01*
X146700Y84700D02*
X150400Y84700D01*
X139400D02*
X143200D01*
X139500Y90700D02*
X143200D01*
X148100Y127100D02*
X148100Y130800D01*
X154100D02*
X154100Y127100D01*
X154100Y119800D02*
X154100Y123600D01*
X148100D02*
X148100Y119900D01*
X146700Y99100D02*
X150400Y99100D01*
X146700Y93100D02*
X150400Y93100D01*
X139400D02*
X143200Y93100D01*
X139500Y99100D02*
X143200Y99100D01*
X14200Y99000D02*
X17900Y99000D01*
X14200Y105000D02*
X18000Y105000D01*
X7000D02*
X10700Y105000D01*
X7000Y99000D02*
X10700Y99000D01*
X2188Y69372D02*
X13212D01*
Y61104D02*
Y74490D01*
X2188Y61104D02*
Y74490D01*
X7515Y86907D02*
X7515Y90057D01*
X7515Y86907D02*
X16964D01*
Y90057D01*
X7515Y90057D02*
X16964Y90057D01*
D11*
X151888Y115900D02*
G03*
X151888Y115900I-492J0D01*
G01*
D12*
X27506Y110470D02*
Y116769D01*
X33806D01*
X130498Y1730D02*
Y8029D01*
X124199Y1730D02*
X130498D01*
D13*
X4185Y53511D02*
X7334Y53511D01*
X4185Y53511D02*
X4185Y48393D01*
X7334Y48393D01*
X11763Y48393D02*
X14814D01*
Y53511D01*
X11665Y53511D02*
X14814Y53511D01*
X149615Y65741D02*
Y70859D01*
X138985Y65741D02*
Y70859D01*
X142725Y70859D01*
X145875D02*
X149615Y70859D01*
X138985Y65741D02*
X142725Y65741D01*
X145875D02*
X149615Y65741D01*
X151002Y107400D02*
Y111369D01*
X138798Y111369D02*
X138798Y107400D01*
X138798Y111369D02*
X151002Y111369D01*
X138798Y107400D02*
X151002D01*
X129541Y104289D02*
X134659D01*
X129541Y93659D02*
X134659D01*
X129541Y97399D02*
X129541Y93659D01*
X129541Y100549D02*
X129541Y104289D01*
X134659Y93659D02*
X134659Y97399D01*
X134659Y104289D02*
X134659Y100549D01*
X4160Y48519D02*
X7900D01*
X11050D02*
X14790Y48519D01*
X4160Y43401D02*
X7900Y43401D01*
X11050D02*
X14790Y43401D01*
Y48519D01*
X4160Y43401D02*
Y48519D01*
D14*
X144463Y86230D02*
Y89183D01*
X145447Y86230D02*
Y89183D01*
X149617Y124863D02*
X152570D01*
X149617Y125847D02*
X152570D01*
X144463Y94630D02*
Y97583D01*
X145447Y94630D02*
Y97583D01*
X11953Y100517D02*
Y103470D01*
X12937Y100517D02*
Y103470D01*
M02*
